<?xml version="1.0" encoding="utf-8"?>
<!-- Generator: Adobe Illustrator 24.0.1, SVG Export Plug-In . SVG Version: 6.00 Build 0)  -->
<svg version="1.1" id="Capa_1" xmlns="http://www.w3.org/2000/svg" xmlns:xlink="http://www.w3.org/1999/xlink" x="0px" y="0px"
	 viewBox="0 0 542.3 788" style="enable-background:new 0 0 542.3 788;" xml:space="preserve">
<style type="text/css">
	.st0{opacity:0.55;fill:#9B785C;enable-background:new    ;}
</style>
<path id="Trazado_6404" class="st0" d="M1066,45.7c-18.3-44.2-30.8-52-78.8-47.6c-46.8,4.3-89.5,21.7-130.3,43.7
	C781.4,82.4,716.9,137.2,658.2,199l-3.4,3.6c-6.8,7.8-13.6,15.7-20.4,23.5c-1.1,5.7-4.8,10.6-10.1,13.2
	c-12.1,17.3-24.1,34.6-36.2,51.9l-2.1,3.5c-2,4-4,8-6,12c-4.7,12.4-8,25.6-14.4,37c-8.6,15.4-9.2,1.2-11.8-4.2l-4.4-6.7
	c-2.1-2.1-3.7-4.8-4.5-7.7c-0.4,0-0.8,0.1-1.3,0.1c-2.7,0-5.4-0.3-8-1c-2.5,0.7-5,1.1-7.6,1.2c-0.4,0-0.8,0-1.2,0
	c-0.2,3-0.3,6-0.5,9c1,3.1-0.2,5.1-3.2,6c-0.5,5.3-1.9,10.5-8,10.6c-1.2,0-2.5-6.8-3.8-10.7c-2.8-0.9-4-2.7-3-5.7l-1.8-6.5l-2.1-1.3
	l0.7-2.2c-5-9.6-10-19.3-15-28.9c-0.8-1.2-1.6-2.4-2.4-3.6c-22.8-29.1-45.5-58.1-68.3-87.2l-3.5-3.6c-13.4-13-26.8-26-40.2-39
	c-1.3-1.3-2.6-2.6-3.8-3.8c-2.2-2.1-4.4-4.2-6.7-6.3l-4.6-4l-44.4-37c-11.3-4.3-20.3-11.8-28.4-20.6c-17.5-10.9-35-21.8-52.4-32.8
	c-6.9-0.5-13.3-3.9-17.6-9.5c-5-2.4-10-4.9-15-7.3c-2.1-1.1-4.2-2.3-6.3-3.4C155.6,23.9,115.3,6.3,70.5,6.5
	C20.6,6.8-4.1,37.6,8.9,85.4c5.4,19.7,10.7,40.2,20.4,57.9c28.9,52.8,27.6,111.1,32.4,168c3.1,36.7,24.3,64.6,59.2,71.5
	c34.6,6.9,69.3,4.9,104.1,5.1c9.7,0.1,20.2-3.7,31.4,3.5c-24.6,7.2-47,12.7-68.7,20.2C108.5,439,83.4,519.1,122.5,594
	c18.3,35,40.8,70.6,45.1,112.5c1,10.2,3,25.2,16,24.7c24.5-1,39.8,10.3,53.3,28.4c4.9,6.6,14.2,6.6,22.4,6.8c8.9,0.2,17.7,0.9,26,5
	c44.5,21.9,72.6,18.2,107.3-17.7c47.7-49.2,88.4-103,102.1-172.7c1-5.3-0.3-14.5,7.9-15.1c10.8-0.8,8.4,9.9,10,15.8
	c7.1,26.8,16.9,52.7,29.3,77.5c12.9-27.7,21.9-52.1,25.9-78.3c0.7-4.7,2.5-9.8,7-10.2c5.7-0.5,9.4,3.8,9.7,9.8
	c1,21.7,13.9,39.1,23.1,57c25.9,50.4,59.2,95.8,106,129.1c21.9,15.7,48.4,24.3,72.8,8.4c27.4-17.9,68.7-9.2,86-46.2
	c1.5-3.2,11.7-3.7,17.7-3.2c17.5,1.5,24.2-8.2,26.4-23.3c6.6-45.4,28.2-85.5,47.8-125.6c32.2-65.9,3.5-145.9-65.2-169.5
	c-24.6-8.5-50.2-14.1-75.3-21.1c8.3-4.3,16.6-4.5,24.9-4.5c41.1-0.1,82.2,0,122.5-9.6c9.5-2.3,21.9-2.8,24.6-13.3
	c5.6-22,15.6-42.1,19.1-65.8c6-41-2.3-83.3,14.7-123.3c13.5-31.8,29.1-63.4,32.2-98.8c0.6-6.3,5.8-5.2,10.2-4.7l-0.2-16.1
	C1069.9,48.5,1066.7,47.6,1066,45.7z"/>
</svg>
