<?xml version="1.0" encoding="utf-8"?>
<!-- Generator: Adobe Illustrator 24.0.1, SVG Export Plug-In . SVG Version: 6.00 Build 0)  -->
<svg version="1.1" id="Capa_1" xmlns="http://www.w3.org/2000/svg" xmlns:xlink="http://www.w3.org/1999/xlink" x="0px" y="0px"
	 viewBox="0 0 42.4 33.7" style="enable-background:new 0 0 42.4 33.7;" xml:space="preserve">
<style type="text/css">
	.st0{fill:#9B785C;}
</style>
<path class="st0" d="M37.1,0H5.4c0,0,0,0,0,0c-2.7,0-5,2.2-5,5v23.8c0,2.7,2.2,5,5,5h31.7c2.7,0,5-2.2,5-5V5C42,2.2,39.8,0,37.1,0z
	 M5.4,2h31.7c1.5,0,2.7,1.1,2.9,2.5L21.2,17.6L2.4,4.5C2.7,3.1,3.9,2,5.4,2z M37.1,31.7H5.4c-1.6,0-3-1.3-3-3V6.9l18.2,12.8
	c0.2,0.1,0.4,0.2,0.6,0.2s0.4-0.1,0.6-0.2L40,6.9v21.8C40,30.4,38.7,31.7,37.1,31.7z"/>
</svg>
