<svg id="Grupo_342" data-name="Grupo 342" xmlns="http://www.w3.org/2000/svg" xmlns:xlink="http://www.w3.org/1999/xlink" width="108.666" height="103.734" viewBox="0 0 108.666 103.734">
  <defs>
    <clipPath id="clip-path">
      <rect id="Rectángulo_51" data-name="Rectángulo 51" width="108.666" height="103.734" fill="#fff"/>
    </clipPath>
  </defs>
  <g id="Grupo_110" data-name="Grupo 110" clip-path="url(#clip-path)">
    <path id="Trazado_581" data-name="Trazado 581" d="M56.62,83.783c-5.36-8.622-10.526-16.926-15.686-25.234-1.321-2.127-2.685-4.231-3.922-6.406-2.7-4.752-1.13-10.585,3.638-13.742,4.44-2.94,10.782-1.984,13.829,2.362,2.828,4.032,5.342,8.284,7.992,12.441.48.752.948,1.512,1.543,2.461,3.7-3.508,7.817-4.111,12.444-2.378,3.535-4.943,8.131-6.819,14.072-4.478,2.771-4.515,6.737-6.251,11.846-5.164a9.276,9.276,0,0,1,6.431,4.671c5.436,9.826,11.156,19.514,16.146,29.564,9.322,18.774-3.088,42.307-23.776,45.5a25.163,25.163,0,0,1-14.7-1.917Q64.726,111.3,43.035,101.008c-5.085-2.415-7.343-7.163-5.855-12.393a5.962,5.962,0,0,1,2.482-3.19C44,82.865,49.594,82.4,56.62,83.783m66.768,7.074c-.79-3.21-1.009-6.711-2.473-9.577-5.279-10.337-10.942-20.48-16.547-30.648a5.419,5.419,0,0,0-9.76,1.5c-.954,3.806-2.337,4.333-5.5,2.092-3.581-2.537-7.58-1.112-8.674,3.091-.846,3.248-2.517,3.818-5.257,1.794-3.263-2.41-6.783-1.421-8.615,2.2-.549,1.087-1.692,2.389-2.727,2.551-.823.128-2.182-1.143-2.807-2.112-3.5-5.419-6.732-11.012-10.323-16.366a8.129,8.129,0,0,0-4.248-2.913c-2.059-.6-3.895.648-4.978,2.437a5.615,5.615,0,0,0,.269,6.229Q53.232,69.6,64.662,88.1c.279.451.788.913.779,1.361-.023,1.116.064,2.533-.559,3.242-.5.574-2.111.646-3,.317a20.247,20.247,0,0,1-4.555-2.55c-3.972-2.817-8.27-2.621-12.663-1.514-2.761.7-3.454,2.312-2,4.822a5.908,5.908,0,0,0,2.4,2.266c14.454,6.884,28.891,13.808,43.47,20.418a21.282,21.282,0,0,0,9.274,1.682c13.781-.51,25.008-12.86,25.573-27.287" transform="translate(-19.433 -19.986)" fill="#fff"/>
    <path id="Trazado_582" data-name="Trazado 582" d="M25.617,0a26.061,26.061,0,0,1,25.5,20.939c.384,1.788-.091,3.112-1.8,3.608-1.807.525-2.932-.543-3.289-2.263a21.159,21.159,0,0,0-9.013-13.7C25.076.377,7.568,8.2,5.779,22.585,4.567,32.329,8.938,40.231,17.833,44.378c.413.192.829.378,1.232.59,1.451.761,2.323,1.874,1.481,3.5a2.685,2.685,0,0,1-3.8,1.379,25.727,25.727,0,0,1-15.256-15.6C-4.47,17.856,8.2-.148,25.617,0" transform="translate(0 0)" fill="#fff"/>
  </g>
</svg>
