<svg xmlns="http://www.w3.org/2000/svg" width="802.898" height="798.626" viewBox="0 0 802.898 798.626">
  <g id="Grupo_500" data-name="Grupo 500" transform="translate(19776.5 14604.741)">
    <path id="Trazado_6404" data-name="Trazado 6404" d="M849.025,370.647c-10.952-27.185-18.549-32.035-47.933-29.656-28.7,2.326-54.919,12.74-80.044,25.933-46.448,24.386-86.231,57.522-122.561,95.038l-2.08,2.179q-6.329,7.142-12.651,14.288a11.245,11.245,0,0,1-6.25,8q-11.228,15.783-22.457,31.562l-1.318,2.159q-1.888,3.662-3.775,7.328c-2.951,7.561-5.077,15.6-9.06,22.572-5.356,9.385-5.652.706-7.2-2.672l-2.652-4.14a10.415,10.415,0,0,1-2.685-4.752c-.26.01-.506.036-.776.036a17.464,17.464,0,0,1-4.9-.68,16.875,16.875,0,0,1-4.646.68c-.246,0-.473-.026-.716-.033q-.182,2.736-.371,5.478c.582,1.919-.177,3.1-1.991,3.68-.319,3.243-1.258,6.4-4.988,6.437-.726.007-1.492-4.206-2.241-6.555-1.706-.595-2.458-1.689-1.807-3.513l-1.035-3.979-1.249-.782.437-1.318q-4.51-8.9-9.023-17.8-.71-1.1-1.423-2.2-20.623-26.888-41.249-53.775l-2.11-2.208Q438.1,449.876,425.913,437.81q-1.158-1.188-2.32-2.376-2.021-1.957-4.045-3.914l-2.764-2.455-26.978-22.946c-6.9-2.708-12.346-7.37-17.229-12.792q-15.945-10.188-31.891-20.38A14.809,14.809,0,0,1,330,367.029q-4.559-2.277-9.125-4.551-1.907-1.055-3.822-2.1c-25.167-8.728-49.694-19.782-77.129-19.913-30.534-.145-45.82,18.53-38.16,47.884,3.164,12.119,6.3,24.671,12.142,35.587,17.389,32.512,16.193,68.181,18.809,103.059,1.682,22.46,14.448,39.682,35.8,44.148,21.116,4.416,42.4,3.444,63.689,3.8,5.908.1,12.388-2.119,19.21,2.34-15.083,4.229-28.822,7.5-42.166,11.935-48.725,16.21-64.629,65.1-41.121,111.149,11,21.559,24.537,43.5,26.9,69.147.575,6.24,1.666,15.458,9.618,15.2,15.024-.489,24.293,6.549,32.436,17.741,2.98,4.095,8.655,4.124,13.673,4.282,5.461.174,10.818.684,15.9,3.253,27.113,13.706,44.3,11.583,65.819-10.144,29.531-29.82,54.768-62.51,63.551-105.09.674-3.26-.079-8.882,4.926-9.217,6.615-.447,5.083,6.138,6.023,9.707a250.372,250.372,0,0,0,17.452,47.617c8.077-16.88,13.752-31.769,16.338-47.762.47-2.9,1.59-5.964,4.374-6.2,3.47-.3,5.751,2.356,5.882,6.033.473,13.282,8.241,23.994,13.785,35.042,15.553,30.987,35.656,59,64.061,79.7,13.335,9.717,29.5,15.172,44.512,5.6,16.877-10.762,42.133-5.228,52.9-27.757.93-1.948,7.209-2.175,10.87-1.824,10.7,1.032,14.886-4.883,16.331-14.1,4.344-27.744,17.787-52.162,30.034-76.593,20.117-40.139,3.059-89.314-38.844-104.183-15.007-5.327-30.616-8.958-45.948-13.364,5.1-2.583,10.187-2.622,15.273-2.576,25.151.223,50.3.526,75.052-5.1,5.833-1.324,13.427-1.567,15.138-8.008,3.575-13.456,9.835-25.677,12.086-40.132,3.9-25.036-.9-51.012,9.75-75.41,8.455-19.378,18.178-38.633,20.33-60.295.384-3.871,3.585-3.174,6.273-2.806v-9.848C851.4,372.4,849.495,371.813,849.025,370.647Z" transform="matrix(0.719, -0.695, 0.695, 0.719, -20156.732, -14257.36)" fill="#9b785c" opacity="0.55"/>
    <g id="Grupo_235" data-name="Grupo 235" transform="translate(-4638.052 -257.926)">
      <g id="Elipse_12" data-name="Elipse 12" transform="translate(-14763 -13974)" fill="none" stroke="#fff" stroke-width="1">
        <circle cx="52" cy="52" r="52" stroke="none"/>
        <circle cx="52" cy="52" r="51.5" fill="none"/>
      </g>
      <path id="Polígono_1" data-name="Polígono 1" d="M23,0,46,39H0Z" transform="translate(-14691 -13945) rotate(90)" fill="#fff"/>
    </g>
  </g>
</svg>
