<?xml version="1.0" encoding="utf-8"?>
<!-- Generator: Adobe Illustrator 24.0.1, SVG Export Plug-In . SVG Version: 6.00 Build 0)  -->
<svg version="1.1" id="Capa_1" xmlns="http://www.w3.org/2000/svg" xmlns:xlink="http://www.w3.org/1999/xlink" x="0px" y="0px"
	 viewBox="0 0 547.5 310.9" style="enable-background:new 0 0 547.5 310.9;" xml:space="preserve">
<style type="text/css">
	.st0{clip-path:url(#SVGID_2_);}
	.st1{clip-path:url(#SVGID_4_);}
	.st2{fill:#2C3F21;}
</style>
<g id="Grupo_325" transform="translate(12563 3522)">
	<g>
		<defs>
			<rect id="SVGID_1_" x="-12563" y="-3522" width="547" height="310.9"/>
		</defs>
		<clipPath id="SVGID_2_">
			<use xlink:href="#SVGID_1_"  style="overflow:visible;"/>
		</clipPath>
		<g id="Enmascarar_grupo_37" transform="translate(-12563 -3522)" class="st0">
			
				<image style="overflow:visible;enable-background:new    ;" width="6000" height="8495" id="Rectángulo_78" xlink:href="8DFF4E74E5BDDB90.png"  transform="matrix(5.343266e-17 -0.8726 0.8726 5.343266e-17 -77.651 5177.9058)">
			</image>
		</g>
	</g>
	<g id="Grupo_324" transform="translate(-12563 -3522)">
		<g>
			<defs>
				<rect id="SVGID_3_" width="547.5" height="310.8"/>
			</defs>
			<clipPath id="SVGID_4_">
				<use xlink:href="#SVGID_3_"  style="overflow:visible;"/>
			</clipPath>
			<g id="Grupo_323" class="st1">
				<path id="Trazado_8304" class="st2" d="M3.2,0h538.2c2,5.6,5.6,11.2,5.6,16.9c0.4,92.1,0,184.1,0.5,276.2
					c0.1,13.5-4.8,17.8-17.9,17.7c-170.6-0.3-341.1-0.3-511.7,0c-13.2,0-18-4.2-17.9-17.7C0.5,200.6,0.2,108,0.4,15.4
					C0.4,10.3,2.2,5.1,3.2,0 M20,28v263.2h507.3V28.3c-6.3,4-10.9,6.7-15.3,9.6c-74.5,48.8-149.2,97.4-223.4,146.7
					c-11.1,7.4-19.2,7-30.1-0.3c-53.4-35.7-107.3-70.7-161.1-105.9C72.2,62,47,45.6,20,28 M46.8,19.9c-0.6,0.9-1.2,1.9-1.8,2.8
					c1.8,0.7,3.5,1.5,5.2,2.5c72.1,47.2,144,94.6,216.4,141.3c3.7,2.4,12.2,1.5,16.4-1.2c69.9-45.3,139.5-90.8,208.9-136.7
					c3.3-2.1,6.2-4.8,11.2-8.7L46.8,19.9z"/>
			</g>
		</g>
	</g>
</g>
</svg>
