<?xml version="1.0" encoding="utf-8"?>
<!-- Generator: Adobe Illustrator 24.0.1, SVG Export Plug-In . SVG Version: 6.00 Build 0)  -->
<svg version="1.1" id="Capa_1" xmlns="http://www.w3.org/2000/svg" xmlns:xlink="http://www.w3.org/1999/xlink" x="0px" y="0px"
	 viewBox="0 0 438.4 282.3" style="enable-background:new 0 0 438.4 282.3;" xml:space="preserve">
<style type="text/css">
	.st0{opacity:0.47;}
	.st1{clip-path:url(#SVGID_2_);}
	.st2{fill:#C19B81;}
</style>
<g id="Grupo_306" transform="translate(438.407 282.292) rotate(180)" class="st0">
	<g>
		<defs>
			<rect id="SVGID_1_" x="0" y="0" width="438.4" height="282.3"/>
		</defs>
		<clipPath id="SVGID_2_">
			<use xlink:href="#SVGID_1_"  style="overflow:visible;"/>
		</clipPath>
		<g id="Grupo_304" transform="translate(0 0)" class="st1">
			<path id="Trazado_8299" class="st2" d="M0,281.8v-28.8c39.4-5.8,70.9-23.2,86-64.8c-7.6-3-14.8-5.8-21.8-8.8
				c-42-17.8-65.8-63.6-55.5-106.6C19.2,28.6,59.6-1.9,104.6,0.2C150.4,2.5,187,36,193.2,81.4C206.9,182.1,104,290.3,0,281.8"/>
			<path id="Trazado_8300" class="st2" d="M330.6,188c-7.8-2.9-13.8-5-19.7-7.4c-45.2-17.9-69-64.9-56.7-111.5
				c11.7-44.2,55.5-74,100.8-68.5c48.2,5.9,83.2,45,83.3,93.2c0.4,102.6-95.1,196.7-192.4,187.8v-29.1C285,247,315.7,229,330.6,188"
				/>
		</g>
	</g>
</g>
</svg>
