<svg id="Componente_1_1" data-name="Componente 1 – 1" xmlns="http://www.w3.org/2000/svg" width="202.561" height="292.499" viewBox="0 0 202.561 292.499">
  <g id="Trazado_8325" data-name="Trazado 8325" transform="translate(17.914 245.951)" fill="#f69b02">
    <path d="M 23.27402114868164 45.54825592041016 C 20.26661109924316 45.54825592041016 17.34968185424805 44.95946502685547 14.60427093505859 43.79825592041016 C 11.95202159881592 42.67644500732422 9.569841384887695 41.07025527954102 7.523910999298096 39.02431488037109 C 5.477981090545654 36.97837448120117 3.871801137924194 34.59618759155273 2.749991178512573 31.94391632080078 C 1.588781118392944 29.19849586486816 1.000001192092896 26.28155517578125 1.000001192092896 23.27412605285645 C 1.000001192092896 20.26669692993164 1.588781118392944 17.34975624084473 2.749991178512573 14.60433578491211 C 3.871801137924194 11.95207595825195 5.477981090545654 9.569886207580566 7.523910999298096 7.523946285247803 C 9.569841384887695 5.478005886077881 11.95202159881592 3.871816158294678 14.60427093505859 2.750005960464478 C 17.34968185424805 1.588786005973816 20.26661109924316 1.000006079673767 23.27402114868164 1.000006079673767 C 26.28143119812012 1.000006079673767 29.19836044311523 1.588786005973816 31.94377136230469 2.750005960464478 C 34.59601974487305 3.871816158294678 36.97820281982422 5.478005886077881 39.02413177490234 7.523946285247803 C 41.07006072998047 9.569886207580566 42.67624282836914 11.95207595825195 43.79804992675781 14.60433578491211 C 44.95926284790039 17.34975624084473 45.54804229736328 20.26669692993164 45.54804229736328 23.27412605285645 C 45.54804229736328 26.28155517578125 44.95926284790039 29.19849586486816 43.79804992675781 31.94391632080078 C 42.67624282836914 34.59618759155273 41.07006072998047 36.97837448120117 39.02413177490234 39.02431488037109 C 36.97820281982422 41.07025527954102 34.59601974487305 42.67644500732422 31.94377136230469 43.79825592041016 C 29.19836044311523 44.95946502685547 26.28143119812012 45.54825592041016 23.27402114868164 45.54825592041016 Z" stroke="none"/>
    <path d="M 23.27402114868164 1.999996185302734 C 20.40116119384766 1.999996185302734 17.61531066894531 2.562206268310547 14.99383163452148 3.670997619628906 C 12.46076965332031 4.742397308349609 10.18543243408203 6.276615142822266 8.231021881103516 8.231037139892578 C 6.276599884033203 10.18546676635742 4.742389678955078 12.4608154296875 3.671001434326172 14.99388694763184 C 2.562202453613281 17.61537551879883 2 20.4012565612793 2 23.27412605285645 C 2 26.14699554443359 2.562202453613281 28.93286514282227 3.671001434326172 31.55436706542969 C 4.742389678955078 34.08743667602539 6.276599884033203 36.36277770996094 8.231021881103516 38.31720733642578 C 10.18543243408203 40.27162551879883 12.46076965332031 41.80584716796875 14.99383163452148 42.87724685668945 C 17.61531066894531 43.98603439331055 20.40116119384766 44.54824447631836 23.27402114868164 44.54824447631836 C 26.14688110351562 44.54824447631836 28.93273162841797 43.98603439331055 31.5542106628418 42.87724685668945 C 34.08727264404297 41.80584716796875 36.36260986328125 40.27162551879883 38.31702041625977 38.31720733642578 C 40.27144241333008 36.36277770996094 41.8056526184082 34.08743667602539 42.87704086303711 31.55436706542969 C 43.98583984375 28.93286514282227 44.54804229736328 26.14699554443359 44.54804229736328 23.27412605285645 C 44.54804229736328 20.4012565612793 43.98583984375 17.61537551879883 42.87704086303711 14.99388694763184 C 41.8056526184082 12.4608154296875 40.27144241333008 10.18546676635742 38.31702041625977 8.231037139892578 C 36.36260986328125 6.276615142822266 34.08727264404297 4.742397308349609 31.5542106628418 3.670997619628906 C 28.93273162841797 2.562206268310547 26.14688110351562 1.999996185302734 23.27402114868164 1.999996185302734 M 23.27402114868164 -3.814697265625e-06 C 36.12791061401367 -3.814697265625e-06 46.54804229736328 10.4201774597168 46.54804229736328 23.27412605285645 C 46.54804229736328 36.12806701660156 36.12791061401367 46.54824447631836 23.27402114868164 46.54824447631836 C 10.42013168334961 46.54824447631836 0 36.12806701660156 0 23.27412605285645 C 0 10.4201774597168 10.42013168334961 -3.814697265625e-06 23.27402114868164 -3.814697265625e-06 Z" stroke="none" fill="#6a7564"/>
  </g>
  <g id="Trazado_8324" data-name="Trazado 8324" transform="translate(17.914 141.383)" fill="#b8c7b7" opacity="0.82">
    <path d="M 23.27402114868164 45.54825592041016 C 20.26661109924316 45.54825592041016 17.34968185424805 44.95946502685547 14.60427093505859 43.79825592041016 C 11.95202159881592 42.67644500732422 9.569841384887695 41.07025527954102 7.523910999298096 39.02431488037109 C 5.477981090545654 36.97837448120117 3.871801137924194 34.59618759155273 2.749991178512573 31.94391632080078 C 1.588781118392944 29.19849586486816 1.000001192092896 26.28155517578125 1.000001192092896 23.27412605285645 C 1.000001192092896 20.26669692993164 1.588781118392944 17.34975624084473 2.749991178512573 14.60433578491211 C 3.871801137924194 11.95207595825195 5.477981090545654 9.569886207580566 7.523910999298096 7.523946285247803 C 9.569841384887695 5.478005886077881 11.95202159881592 3.871816158294678 14.60427093505859 2.750005960464478 C 17.34968185424805 1.588786005973816 20.26661109924316 1.000006079673767 23.27402114868164 1.000006079673767 C 26.28143119812012 1.000006079673767 29.19836044311523 1.588786005973816 31.94377136230469 2.750005960464478 C 34.59601974487305 3.871816158294678 36.97820281982422 5.478005886077881 39.02413177490234 7.523946285247803 C 41.07006072998047 9.569886207580566 42.67624282836914 11.95207595825195 43.79804992675781 14.60433578491211 C 44.95926284790039 17.34975624084473 45.54804229736328 20.26669692993164 45.54804229736328 23.27412605285645 C 45.54804229736328 26.28155517578125 44.95926284790039 29.19849586486816 43.79804992675781 31.94391632080078 C 42.67624282836914 34.59618759155273 41.07006072998047 36.97837448120117 39.02413177490234 39.02431488037109 C 36.97820281982422 41.07025527954102 34.59601974487305 42.67644500732422 31.94377136230469 43.79825592041016 C 29.19836044311523 44.95946502685547 26.28143119812012 45.54825592041016 23.27402114868164 45.54825592041016 Z" stroke="none"/>
    <path d="M 23.27402114868164 1.999996185302734 C 20.40116119384766 1.999996185302734 17.61531066894531 2.562206268310547 14.99383163452148 3.670997619628906 C 12.46076965332031 4.742397308349609 10.18543243408203 6.276615142822266 8.231021881103516 8.231037139892578 C 6.276599884033203 10.18546676635742 4.742389678955078 12.4608154296875 3.671001434326172 14.99388694763184 C 2.562202453613281 17.61537551879883 2 20.4012565612793 2 23.27412605285645 C 2 26.14699554443359 2.562202453613281 28.93286514282227 3.671001434326172 31.55436706542969 C 4.742389678955078 34.08743667602539 6.276599884033203 36.36277770996094 8.231021881103516 38.31720733642578 C 10.18543243408203 40.27162551879883 12.46076965332031 41.80584716796875 14.99383163452148 42.87724685668945 C 17.61531066894531 43.98603439331055 20.40116119384766 44.54824447631836 23.27402114868164 44.54824447631836 C 26.14688110351562 44.54824447631836 28.93273162841797 43.98603439331055 31.5542106628418 42.87724685668945 C 34.08727264404297 41.80584716796875 36.36260986328125 40.27162551879883 38.31702041625977 38.31720733642578 C 40.27144241333008 36.36277770996094 41.8056526184082 34.08743667602539 42.87704086303711 31.55436706542969 C 43.98583984375 28.93286514282227 44.54804229736328 26.14699554443359 44.54804229736328 23.27412605285645 C 44.54804229736328 20.4012565612793 43.98583984375 17.61537551879883 42.87704086303711 14.99388694763184 C 41.8056526184082 12.4608154296875 40.27144241333008 10.18546676635742 38.31702041625977 8.231037139892578 C 36.36260986328125 6.276615142822266 34.08727264404297 4.742397308349609 31.5542106628418 3.670997619628906 C 28.93273162841797 2.562206268310547 26.14688110351562 1.999996185302734 23.27402114868164 1.999996185302734 M 23.27402114868164 -3.814697265625e-06 C 36.12791061401367 -3.814697265625e-06 46.54804229736328 10.4201774597168 46.54804229736328 23.27412605285645 C 46.54804229736328 36.12806701660156 36.12791061401367 46.54824447631836 23.27402114868164 46.54824447631836 C 10.42013168334961 46.54824447631836 0 36.12806701660156 0 23.27412605285645 C 0 10.4201774597168 10.42013168334961 -3.814697265625e-06 23.27402114868164 -3.814697265625e-06 Z" stroke="none" fill="#6a7564"/>
  </g>
  <g id="Grupo_195" data-name="Grupo 195" transform="translate(0 0.002)">
    <ellipse id="Elipse_13" data-name="Elipse 13" cx="23.274" cy="23.274" rx="23.274" ry="23.274" transform="translate(18.406 18.406)" fill="#d8b69d" opacity="0.82"/>
    <g id="Elipse_14" data-name="Elipse 14" fill="none" stroke="#6a7564" stroke-width="2">
      <ellipse cx="41.68" cy="41.68" rx="41.68" ry="41.68" stroke="none"/>
      <ellipse cx="41.68" cy="41.68" rx="40.68" ry="40.68" fill="none"/>
    </g>
  </g>
  <text id="Eje_1" data-name="Eje 1" transform="translate(112.561)" fill="#6a7564" font-size="18" font-family="Prata-Regular, Prata"><tspan x="0" y="18">Eje 1</tspan></text>
  <path id="Trazado_3489" data-name="Trazado 3489" d="M1392.09-24403.73v59.926" transform="translate(-1350.902 24487.098)" fill="none" stroke="#6a7564" stroke-width="2"/>
  <path id="Trazado_3491" data-name="Trazado 3491" d="M0,0V118.957" transform="translate(83.357 41.682) rotate(-90)" fill="none" stroke="#6a7564" stroke-width="2"/>
  <path id="Trazado_3490" data-name="Trazado 3490" d="M1392.09-24403.73v59.926" transform="translate(-1350.902 24591.666)" fill="none" stroke="#6a7564" stroke-width="2"/>
</svg>
