<svg xmlns="http://www.w3.org/2000/svg" width="2568.853" height="2922.071" viewBox="0 0 2568.853 2922.071">
  <path id="Trazado_8305" data-name="Trazado 8305" d="M2230.382,2021.181c-85.87-1.146-170.258,34.742-230.428,95.779-2.189,2.217-4.247,4.564-6.362,6.846,33.141-62.947,65.294-126.75,87.789-194.353,13.832-41.552,23.891-84.435,27.8-128.1.409-4.583-4.472-6.911-8.1-4.574-39.641,25.577-69.913,63.245-90.991,105.122-23.789,47.279-35.237,99.766-40.1,152.2-2.971,31.995-3.558,64.157-3.278,96.273a5.141,5.141,0,0,0,.95,2.887c-1.835,3.54-3.66,7.1-5.5,10.637-2.281,3.493-4.6,6.976-6.743,10.572a5.092,5.092,0,0,0-.615,3.735q-5.938,11.61-11.671,23.323c-.448.624-.988,1.192-1.416,1.834a2.329,2.329,0,0,0-.335,1.835c-6.325,13.068-12.426,26.229-17.9,39.642-8.253,20.212-14.875,41.291-17.622,63a165.573,165.573,0,0,0-1.044,27.934c-3.763-10.367-7.293-20.836-10.7-31.352a3.7,3.7,0,0,0,.094-.708c-.1-5.524-2.953-11.522-5.57-16.794-17.222-56.677-29.788-115.116-39.865-173.647a67.074,67.074,0,0,0-2.329-13.552c-.167-1.034-.363-2.058-.53-3.092-11.513-69.82-21-140-30.523-210.132,50.064-69.876,88.784-148.275,119.344-228.37,2.031-5.318,3.9-10.693,5.86-16.039a5.749,5.749,0,0,0,4.107,1.276c42.688-2.925,84.938-18.563,123.453-36.382,19.663-9.091,38.878-19.113,57.953-29.359,16.851-9.053,34.379-17.651,49.748-29.126,15.127-11.28,27.944-26.295,30.309-45.613.466-3.791-2.738-6.259-6.231-6.073-1.2.056-2.4.186-3.614.261a3.554,3.554,0,0,0-4.75-.056l-.569.447c-74.925,5.812-148.61,35.581-205.493,84.835a262.118,262.118,0,0,0-37.584,39.362,1188.621,1188.621,0,0,0,54.722-230.074,1159.014,1159.014,0,0,0,9.808-155.4c-.009-4.983-5.392-7.433-8.9-3.623a368.694,368.694,0,0,0-70.6,389.983,5.018,5.018,0,0,0,2.459,2.673,1219.081,1219.081,0,0,1-58.55,138.719c-19.169,38.534-40.574,75.9-62.807,112.741q-3.856-28.4-7.759-56.79-20.8-149.719-41.589-299.447-6.147-44.192-12-88.617c3.809-27.487,8.178-54.88,14.53-81.92a722.027,722.027,0,0,1,23.575-78.986,6.275,6.275,0,0,0,6.883.084c76.862-47.727,139.2-121.506,171.748-206.1,9.948-25.847,15.956-54.545,5.887-81.286-1.1-2.934-5.58-4.294-7.974-2.04-2.431,2.3-4.768,4.695-7.172,7.023-17.78,7.386-34.779,17.66-50.3,28.753a302,302,0,0,0-48.631,43.61c-30.914,34.323-52.738,75.735-65.134,120.146a284.335,284.335,0,0,0-8.1,39.325q-1.326,10.1-1.946,20.268c-.344,5.756-.829,11.652-.3,17.427a709.51,709.51,0,0,0-23.314,76.7,654.087,654.087,0,0,0-13.347,70.137c-6.846-50.912-13.869-101.88-21.991-152.653l.019-1.555a4.79,4.79,0,0,0,.447-4.741c-.112-.289-.252-.578-.382-.866.215-10.721.662-21.442,1.593-32.107a453.435,453.435,0,0,1,9.5-59.994c8.923-39.754,22.95-78.324,40.164-115.209,35.581-76.238,85.142-144.5,137.434-210.02,26.527-33.234,53.817-65.843,80.494-98.956,13.413-16.654,26.7-33.411,39.707-50.4,8.476-11.066,25.242-28.586,17.6-44.048-9.063-18.359-35.534-2.7-47.876,3.1a376.265,376.265,0,0,0-130.019,101.107c-50.512,61.279-80.262,139.11-84.072,218.4-.465,9.8-.511,19.6-.252,29.4a4.611,4.611,0,0,0,.727,2.384c-5.486,9.948-10.8,19.989-15.824,30.216-29.872,60.776-51.034,126.675-55.737,194.363-.736-4.3-1.425-8.616-2.189-12.91,2.412-24.99.81-50.521-1.658-75.39-2.9-29.247-7.786-58.252-13.458-87.071-11.467-58.289-25.923-116.038-34.51-174.868a715.8,715.8,0,0,1-7.517-106.314A552.318,552.318,0,0,0,1764.18,622.5a531.458,531.458,0,0,0,35.021-78.744c9.631-27.5,17.9-56.017,21.292-85.022,3.735-31.948,1.044-65.685-15.639-93.87-1.723-2.915-5.318-4.536-8.326-2.124-41.3,33.047-70.127,78.65-91.066,126.694-18.229,41.849-31.474,86.037-40.4,130.9q-2.054-19.435-5.635-38.664a501.742,501.742,0,0,0-51.546-146.254,486.935,486.935,0,0,0-48.565-73.267c-2.636-3.279-8.588-1.965-8.961,2.487-.251,2.971-.354,5.933-.54,8.9a1.741,1.741,0,0,0-.111,1.09l.037.168c-6.231,103.585,24.571,205.084,65.22,299.317,11.158,25.866,22.5,52.272,36.233,76.946a6.083,6.083,0,0,0,.205,7.526,687.811,687.811,0,0,0,4.331,77.84c6.827,59.63,21.032,118.059,33.495,176.675,10.851,51.006,19.9,102.2,23.118,154.171-14.111-73.928-31.613-147.064-55.411-218.477-46.1-138.346-119.792-272.529-229.58-370.246a2.331,2.331,0,0,0,1.118-2.99c-12.537-34.137-24.674-68.284-33.8-103.51-2.245-8.662-4.284-17.371-6.213-26.1a6.062,6.062,0,0,0,1.471-1.5,4.292,4.292,0,0,0,3.177-3.083A1033.028,1033.028,0,0,0,1442.387,121.7c-.093-26.742-.568-55.346-14.437-79.107-1.742-2.971-6.054-4.331-8.4-1.025-40.732,57.386-52.645,130.112-56.52,198.917a748.108,748.108,0,0,0,5.085,138.393,415.237,415.237,0,0,0-23.937-52.84c-19.7-36.279-44.234-70.258-73.351-99.589-7.126-7.181-14.465-14.148-22.065-20.827-7.172-6.306-15.7-12.826-25.866-10.562-10.636,2.366-14,12.286-11.242,22.01,2.748,9.659,6.967,19.132,10.907,28.362a482.925,482.925,0,0,0,61.522,104.814,474.02,474.02,0,0,0,95.454,93.367c1.183,5.412,2.32,10.842,3.633,16.226,9.518,39.083,21.823,78.1,39.306,114.408-10.3-8.988-20.808-17.763-31.753-26.08-37.416-28.446-77.579-51.741-119.494-71.246a3.026,3.026,0,0,0-1.006-2.943c-20.836-18.861-43.4-35.767-64.623-54.2q-9.445-8.2-18.731-16.6c-32.8-78.268-33.01-178.472-104.935-234.992-16.906-13.292-36.7-22.68-58.066-25.773a5.151,5.151,0,0,0-5.682,5.812c7.945,52.9,29.722,102.858,59.248,147.195,26.528,39.837,59.258,75.046,94.495,107.329a56.353,56.353,0,0,0,3.5,7.377,2.725,2.725,0,0,0,4.024.922,4.911,4.911,0,0,0,2.459.727c2.682,2.394,5.346,4.816,8.057,7.172,19.3,16.784,39.241,33.448,60.143,48.444-105.373-45.137-221.076-67.166-334.3-81.92-21.208-2.766-42.333-4.8-63.673-6.138a2.155,2.155,0,0,0-.531,4.275c84.2,15.713,169.009,25.931,252.158,47.326,49.487,12.733,98.462,28.837,145.35,49.487-9.91-.084-19.83-.056-29.741-.475-18.554-.792-37.09-2.31-55.551-4.3-36.577-3.94-72.894-9.845-109.286-15.108-65.955-9.538-133.382-16.7-199.718-6.343-35.507,5.542-70.268,16.291-101.732,33.839-3.354,1.872-4.583,8.029.075,9.4a511.947,511.947,0,0,0,262.86,6.734,515.482,515.482,0,0,0,71.143-22.615,4.729,4.729,0,0,0,2.757-6.231c20.762,3.018,41.532,5.97,62.35,8.346,20.221,2.31,40.489,4.117,60.823,4.722,16.664.5,33.727.931,50.307-1.462a667.017,667.017,0,0,1,77,41.849c104.283,66.43,182.888,163.253,239.845,271.663-29.173-14.428-60.124-26.061-90.806-36.689a766.8,766.8,0,0,0-98.555-27.393c-14.1-2.86-28.334-5.142-42.632-6.93a5.955,5.955,0,0,0-3.912-3.213c-6.7-33.69-21.646-65.834-40.5-94.345a302.653,302.653,0,0,0-75.326-78.269,279.847,279.847,0,0,0-54.387-30.737c-3.353-1.416-8.392,1.658-7.246,5.672,19.812,69.783,59.444,132.357,115.237,178.975q11.583,9.682,23.985,18.321l.1.075c-34.6-1.5-69.308.615-103.427,7.377-57.078,11.3-112.443,34.929-156.928,72.922q-8.285,7.084-16,14.782c-5,5-10.022,10.507-11.41,17.7a14.047,14.047,0,0,0,7.517,15.406c6.5,3.195,14.232,1.369,20.995.242,34.976-5.849,69.876-12.416,104.237-21.2,63.412-16.207,125.856-40.527,177.727-81.277,1.444-1.136,2.785-2.394,4.2-3.558.121-.047.224-.028.355-.084q5.322-2.473,10.655-4.946a2.909,2.909,0,0,0,2.077-.969l2.17-1.006a3.977,3.977,0,0,0,1.882-1.928c7.5.931,14.977,1.947,22.429,3.195,64.912,10.944,127.327,32.777,188,57.851,7.423,3.074,14.819,6.12,22.355,8.923a3.507,3.507,0,0,0,1.8.168,997.452,997.452,0,0,1,45.724,103.65c34.631,92.268,56.967,188.094,74.105,285.066-6.642-12.341-13.6-24.506-20.771-36.41A797.6,797.6,0,0,0,1497.91,950.058a648.981,648.981,0,0,0-88.272-59.258c-2.235-1.239-4.378,2.505-2.235,3.9l.428.289a10.184,10.184,0,0,0-.438,3.512c.065,2.906.186,5.812.429,8.709a166.528,166.528,0,0,0,2.57,17.828,228.617,228.617,0,0,0,9.24,33.923,247.707,247.707,0,0,0,11.018,25.633,1.21,1.21,0,0,0,.019,1.155c.41.643.96,1.211,1.416,1.816a256.878,256.878,0,0,0,20.073,33.261,250.175,250.175,0,0,0,48.78,51.08c20.212,15.853,42.93,27.449,66.653,37.071,29,11.773,59.267,21.125,86.177,37.434a6.605,6.605,0,0,0,7.768-.279c2.4,3.763,4.844,7.507,7.19,11.317,15.751,25.615,29.321,52.16,42.455,79.1,12.966,79.47,23.1,159.48,34.128,238.736.969,6.958,1.91,13.916,2.869,20.883-2.59-4.611-5.309-9.147-8.243-13.525-11.6-17.353-25.838-32.7-41.04-46.982a4.445,4.445,0,0,0-4.3-4.8c-.345-.028-.68-.075-1.015-.1-3.233-2.944-6.493-5.868-9.771-8.737-20.677-18.07-41.9-35.618-63.4-52.71-20.808-16.533-42.073-32.554-64.763-46.451-25.056-15.35-51.536-28.437-80.242-35.227-1.78-.419-2.637,1.8-1.826,3.092-.038.075-.121.112-.14.2-.913,3.949.8,7.423,2.636,11,2.17,4.247,4.462,8.4,6.92,12.49a233.077,233.077,0,0,0,15.769,23.006,269.185,269.185,0,0,0,37.5,39.157,275.682,275.682,0,0,0,95.826,53.1c19.16,6.008,39.54,10.5,59.7,11.28,11.587,11.131,22.634,22.783,32.312,35.646a184.181,184.181,0,0,1,22.2,37.7,143.9,143.9,0,0,1,7.106,20.231c.057.2.075.41.131.615,16.17,117.668,31.968,235.42,48.566,353.042a5.488,5.488,0,0,0-1.63,1.919,34.918,34.918,0,0,0-3.418,12.975c-20.185-33.2-49.069-59.5-77.794-85.292-59.845-53.716-115.563-111.958-177.16-163.728-17.25-14.493-34.947-28.456-53.268-41.57-18.108-12.947-36.755-25.177-56.949-34.612a1.294,1.294,0,0,0-.931-.037c-1.388-1.444-4.462-1.174-4.434,1.285.261,28.651,8.365,56.808,19.988,82.861a292.417,292.417,0,0,0,46.6,72.465c40.294,46.3,93.656,79.07,151.089,99.776a504.087,504.087,0,0,0,50.782,15.2q12.672,3.116,25.493,5.6c8.522,1.658,17.194,3.745,25.885,3.4,12.64,12.751,24.572,26.164,34.779,41.076a203.55,203.55,0,0,1,27.589,59.174,211.421,211.421,0,0,1,6.594,32.452c.867,7.1,1.229,14.232,1.733,21.348-1.127-.876-3.083-.373-2.739,1.378,3.047,15.574,8.085,30.7,12.714,45.892,8.923,58.793,19.365,118.442,33.82,176.964-1.574-2.505-3.073-5.058-4.7-7.535-7.767-11.82-16.039-23.323-24.934-34.333-6.083-7.535-12.482-15.685-19.653-22.643a4.675,4.675,0,0,0-1.612-4.126c-1.433-1.285-2.794-2.626-4.2-3.93-3.186-14.9-7.294-29.656-11.56-44.2-6.3-21.488-13.412-42.79-21.6-63.645a814.114,814.114,0,0,0-59.826-121.413c-13.134-21.889-27.412-43.07-42.622-63.57-2.487-3.344-8.718-.987-7.721,3.316,19.933,86.353,41.207,175.371,93.833,248.46-8.737-7.982-17.67-15.741-26.863-23.193a605.51,605.51,0,0,0-107.776-69.3c-41.813-21.172-85.516-38.254-129.4-54.564-49.087-18.246-98.658-35.748-146.385-57.376.074-.261.074-.522.158-.783,1.117-3.493-3.866-5.654-5.328-2.2-4.042,9.547-1.36,19.607,3.3,28.409a195.04,195.04,0,0,0,15.769,24.2,297.183,297.183,0,0,0,39.735,43.573c29.462,26.769,63.626,48.313,99.636,65.135,41.141,19.216,84.64,32.778,128.5,44.215,42.26,11.028,86.307,18.238,126.442,36.056,20.557,9.119,40.005,22.057,55.569,38.422,6.288,7.843,12.352,15.872,18.248,24.012a116.857,116.857,0,0,1,11.689,26.639c.951,3.214,5.831,1.686,5.645-1.4a614.143,614.143,0,0,1,31.147,53.381,5.47,5.47,0,0,0,2.152,2.208c22.969,74.1,54.294,145.117,99.849,208.623a487.926,487.926,0,0,0,36.866,45.352c5.263,5.756,14.856-1.518,9.649-7.535-47.7-55.206-82.683-117.3-109.275-183.139a165.976,165.976,0,0,1-1.994-52.542c2.329-19.672,8-38.711,15.257-57.1,7.275-18.452,15.76-36.484,24.739-54.275a176.511,176.511,0,0,1,17.781-12.612,214.672,214.672,0,0,1,28.632-14.009c20.333-8.355,41.5-14.4,62.126-21.945a398.52,398.52,0,0,0,117.11-67.492,404.472,404.472,0,0,0,54.47-54.815C2235.906,2026.369,2234.145,2021.228,2230.382,2021.181Zm-289.854-410.642c-.252-.643-.447-1.295-.69-1.928-1.033-96.245,9.352-192.174,36.075-284.833,4.722-16.393,10.134-32.507,15.853-48.518-.372,2.235-.745,4.471-1.154,6.669q-3.242,17.3-6.372,34.612c-4.294,23.677-8.356,47.391-12.416,71.106-8.132,47.438-15.518,94.988-21.684,142.724-3.325,25.7-6.557,51.4-8.662,77.216C1941.153,1608.564,1940.854,1609.561,1940.529,1610.539Zm228.956-71.264c-14.334,10.767-30.663,18.75-46.414,27.189-36.325,19.458-73.462,38.03-112.712,50.875-20.184,6.6-40.694,10.823-61.625,13.86,1.658-1.677,3.335-3.335,5-5,68.042-16.822,133.27-46.488,191.644-84.993a534.566,534.566,0,0,0,44.848-32.712c1.211-.1,2.422-.242,3.633-.326C2189.995,1521.075,2180.271,1531.172,2169.485,1539.275Zm5.29-29.21c-23.751,18.219-48.108,35.4-74.17,50.409a672.472,672.472,0,0,1-99.207,46.469c-9.64,3.614-19.411,6.883-29.247,9.929q7.348-2.948,14.642-6.175,19.574-8.621,38.58-18.452a664.243,664.243,0,0,0,72.028-43.256q19.9-13.72,38.766-28.847a3.472,3.472,0,0,0,1.341-3.409l.047-.019A338.567,338.567,0,0,1,2174.775,1510.065Zm-141.932,50.624a353.938,353.938,0,0,1,90.312-40.173,680.158,680.158,0,0,1-132.906,82.181c-7.6,3.558-15.3,6.846-22.969,10.237C1987.547,1593.624,2008.877,1575.685,2032.843,1560.689Zm-86.148,30.84c6.352-41.011,11.931-82.172,18.162-123.2,7.135-47.01,14.987-93.9,23.911-140.6q3.8-19.909,7.815-39.763,1.928-9.5,3.884-18.983c.484-2.347,1.015-4.7,1.537-7.069a1193.1,1193.1,0,0,1-31.688,244.735C1963.563,1535.251,1955.609,1563.548,1946.7,1591.528ZM1916.908,1456a357.583,357.583,0,0,1,43.917-147.726,336.4,336.4,0,0,1,23.388-36.3,915.779,915.779,0,0,0-30.607,111.465,862.955,862.955,0,0,0-18.266,145.537c-.857,22.643-.82,45.277.308,67.892A358.526,358.526,0,0,1,1916.908,1456Zm-118.582-199.933c43.816-67.436,86.67-135.449,132.171-201.777,6.595-9.612,13.283-19.169,19.97-28.725,2.906-4.154,5.738-8.42,8.635-12.649-5.477,15.5-12.462,30.607-19.439,45.361-8.885,18.806-18.647,37.211-29.116,55.187a663.8,663.8,0,0,1-72.606,101.117c-11.95,13.767-24.571,26.891-37.294,39.922C1799.873,1255.019,1799.109,1255.55,1798.326,1256.063ZM1960.08,1059.3a371.841,371.841,0,0,1-29.1,58.6,435.652,435.652,0,0,1-82.5,99.841c-9.445,8.429-19.318,16.337-29.472,23.863A639.957,639.957,0,0,0,1875,1174.888c24.935-33.839,47.327-69.476,66.067-107.124,10.4-20.9,18.74-42.632,28.474-63.822C1971.685,1022.608,1966.767,1041.842,1960.08,1059.3Zm-3.587-52.365c-3.148,4.629-6.418,9.193-9.491,13.795q-8.509,12.742-16.952,25.531-16.892,25.54-33.877,51.043-34.161,51.345-67.436,103.3-14.516,22.676-28.568,45.65a722.268,722.268,0,0,1,97.065-171.552A701.414,701.414,0,0,1,1956.493,1006.932Zm-160.775,219.186a325.243,325.243,0,0,1,5.44-34,271.026,271.026,0,0,1,23.1-65.349,277.9,277.9,0,0,1,120.668-122.922,715.454,715.454,0,0,0-105.383,139.408,732.526,732.526,0,0,0-44.373,90.592C1795.355,1231.268,1795.457,1228.688,1795.718,1226.117Zm247.157-575.888c-3.614,8.281-10.284,15.341-15.741,22.438q-18.568,24.115-37.779,47.736c-26.042,32.218-52.478,64.1-78.306,96.5-39.446,49.469-77.431,100.483-109.294,155.177.009-1.192.074-2.375.1-3.567,9.789-21.749,19.42-43.451,30.691-64.548q19.308-36.159,41.272-70.854a1010.82,1010.82,0,0,1,97.055-129.078q30.639-34.552,64.465-66.095a4.175,4.175,0,0,0,1.07-1.555c.1-.019.215-.056.327-.065C2046.46,635.019,2045.669,643.839,2042.875,650.229Zm-55.178,8.159q11.526-6.427,23.5-12.006c2.459-1.146,4.946-2.217,7.434-3.3a1024.8,1024.8,0,0,0-97.8,110.533A950.994,950.994,0,0,0,1833.274,892c-6.958,13.469-13.534,27.151-19.989,40.871-3.726,7.917-7.469,15.825-11.037,23.807a366.509,366.509,0,0,1,31.483-130.54c8.728-8.029,16.839-16.9,24.888-25.475q16.095-17.157,31.249-35.18a884.024,884.024,0,0,0,57.815-76.247,3.416,3.416,0,0,0-.476-4.443A359.783,359.783,0,0,1,1987.7,658.389Zm-51.229,34.957c-15.974,23.37-32.7,46.1-50.874,67.864q-15.075,18.051-31.1,35.3c-4.266,4.592-8.662,9.063-13.068,13.543a353.918,353.918,0,0,1,27.431-45.342A364.129,364.129,0,0,1,1936.467,693.345ZM1791.4,532.57a545.432,545.432,0,0,1-77.114,147.009,532.086,532.086,0,0,1-50.093,58.205c54.117-83.764,94.466-176.377,120.314-272.631q5.5-20.454,10.153-41.123c2.859-12.733,6.5-25.829,8.112-38.869C1821.444,431.509,1806.9,487.433,1791.4,532.57Zm7.023-156.882c-.112.009-.215.056-.336.074l.261-.223ZM1788.4,384.22c2.263-2.142,4.658-4.117,7.023-6.129-.018.075-.065.112-.084.186-3.38,12.584-4.7,25.773-7.329,38.552q-3.843,18.666-8.467,37.164-9.276,37.3-21.507,73.779a1012.107,1012.107,0,0,1-60,141.8q-15.857,30.835-33.773,60.6c.456-3.838.941-7.666,1.3-11.513,6.566-12.435,12.183-25.456,17.6-38.3,7.8-18.5,14.912-37.3,21.144-56.389a769.676,769.676,0,0,0,28.26-117.091c3.222-20.072,5.486-40.275,7.079-60.543C1753.17,423.62,1769.144,402.467,1788.4,384.22Zm-81.7,131.146a483.392,483.392,0,0,1,24.2-53.52,756.8,756.8,0,0,1-50.223,208.679c-4.294,10.823-9.1,21.442-13.868,32.069q1.089-17.856.893-35.767A682.975,682.975,0,0,1,1706.692,515.366Zm-80.355-15.136c3.623,9.65,6.865,19.439,9.873,29.3-.941-1.49-1.882-2.971-2.776-4.462q-6.482-10.9-12.593-22.028-11.75-21.418-21.935-43.647c-8.9-19.309-16.869-39.037-24.143-59.016A482.568,482.568,0,0,1,1626.337,500.23ZM1559.6,379.013c2.208,2.915,4.313,5.9,6.455,8.858a688.065,688.065,0,0,0,28.735,74.179q10.143,22.229,21.711,43.75,5.757,10.758,11.867,21.321c4.006,6.911,7.778,14.428,12.7,20.724a2.073,2.073,0,0,0,.465.4,494.106,494.106,0,0,1,14.511,84.025,922.353,922.353,0,0,1-85.431-196.347c-4.1-13.6-7.871-27.31-11.523-41.039C1559.19,389.595,1559.32,384.3,1559.6,379.013Zm64.968,207.962q14.348,29.033,30.8,56.948a3.562,3.562,0,0,0,1.565,1.434c.075,1.4.214,2.785.28,4.182.26,5.291.326,10.581.4,15.881q-3.981,29.885-5.346,60.04c-20.706-73.574-45.585-146.245-72.839-217.621-5.16-13.506-10.507-26.946-15.937-40.35-.568-4.229-1.182-8.457-1.649-12.714q-2.221-19.909-2.692-39.931C1574.688,474.3,1597.425,532.021,1624.567,586.975Zm-25.624,20.315c-14.139-39.6-25.643-80.243-32.684-121.711,23.5,60.478,44.989,121.711,63.4,183.94,4.071,13.776,7.992,27.6,11.866,41.43-4.592-10.125-9.193-20.249-13.534-30.449C1617.712,656.339,1607.782,632.029,1598.943,607.29ZM1430.27,194.021a1041.495,1041.495,0,0,1-23.51,157.217c-5.868,25.661-12.789,51.089-20.5,76.257-.438-.382-.875-.754-1.3-1.136a1.078,1.078,0,0,0,1.649-.494c13.748-47.568,23.128-96.189,30.225-145.192A1196.982,1196.982,0,0,0,1428.8,133.31q.405-20.231.2-40.48-.112-10.325-.391-20.659c-.019-.522-.019-1.043-.028-1.574,3.614,14.493,4.294,29.759,4.359,44.8Q1433.115,154.743,1430.27,194.021ZM1420.946,57.5c-.13,4.08.243,8.2.41,12.286q.377,9.459.624,18.908.475,18.456.372,36.931-.209,36.577-2.636,73.09a1215.312,1215.312,0,0,1-18.2,145.891c-5.1,26.993-10.916,53.93-17.167,80.672a.862.862,0,0,0,.15.68l-.075-.065q-2.334-12.071-4.285-24.2c2.766-9.957,4.48-20.277,6.446-30.411q3.073-15.886,5.747-31.855,5.476-32.344,9.472-64.9,7.893-65.107,10.125-130.736.6-17.911.839-35.832.125-9.179.121-18.359c0-5.551.484-11.419-.689-16.878Q1416.293,64.966,1420.946,57.5Zm-36.81,95.3a323.692,323.692,0,0,1,20.976-65.62q.084,8.606.074,17.213c-.027,10.5-.139,20.995-.4,31.492q-.824,32.358-3.018,64.651-4.387,64.562-14.158,128.622-2.738,18.149-5.914,36.242c-1.2,6.818-2.618,13.646-3.912,20.482-.922-6.744-1.789-13.5-2.506-20.268C1367.789,295.24,1369.419,222.206,1384.136,152.805ZM1227.8,204.22c4.974.382,9.184,4.126,12.77,7.256,7.349,6.427,14.4,13.226,21.209,20.2a449.706,449.706,0,0,1,69.644,91.979,466.679,466.679,0,0,1,28.046,58.224c2.617,6.585,5.049,13.245,7.377,19.933-15.788-22.978-31.371-46.1-47.261-68.991q-28.754-41.4-58.7-81.938c-11.4-15.425-22.56-31.278-35.078-45.827a1.612,1.612,0,0,0-1.071-.568A9.828,9.828,0,0,1,1227.8,204.22Zm-3.315.3h0Zm-1.081.568a1.543,1.543,0,0,0-.149,1.975c9.445,14.037,20.035,27.356,30.085,40.983s20.017,27.338,29.881,41.123q29.326,41.02,57.171,83.047c7.34,11.14,14.68,22.317,21.871,33.578-43.5-41.225-81.361-88.067-111.251-140.228q-15.439-26.923-28.352-55.206a1.5,1.5,0,0,0-2.5-.354A5.725,5.725,0,0,1,1223.407,205.087ZM1242,265.192q-6.4-12.868-11.979-26.108-2.794-6.609-5.383-13.31c-1.621-4.21-3.782-8.756-4.453-13.282a611.7,611.7,0,0,0,122.671,184c9.453,9.771,19.337,19.113,29.433,28.223C1317.826,381.864,1272.848,327.319,1242,265.192ZM1030.116,156.019c10.776,12.807,22.065,25.186,32.423,38.375,12.164,15.48,23.743,31.482,34.361,48.062,21.311,33.271,40.638,68.488,55.346,105.215,3.586,8.951,6.827,18.023,10.087,27.086q-6.9-11.177-13.86-22.336-15.285-24.632-30.561-49.273-30.234-48.984-60.32-98.043c-8.531-13.934-17.091-27.859-25.9-41.626C1031.168,160.992,1030.582,158.524,1030.116,156.019Zm80.755,59.686c23.212,36.689,33.3,79.9,44.038,121.413.345,1.332.726,2.645,1.081,3.977-6.586-14.763-13.4-29.405-20.939-43.712a672.242,672.242,0,0,0-64.511-99.626c-11.447-14.707-23.407-29.648-36.689-42.911C1066.451,163.34,1093.034,187.529,1110.871,215.7Zm33.83,146.738c-36.81-38.729-69.056-82.367-91.039-131.267a333.294,333.294,0,0,1-19.513-56.426c14.809,25.2,30.457,49.962,45.64,74.906q29.941,49.222,59.519,98.667l13.357,22.243C1150,367.874,1147.309,365.2,1144.7,362.443ZM942.775,459.331c45.565,1.295,90.62,7.759,135.664,14.316-2.254.894-4.527,1.7-6.79,2.552-7.4-1.164-15.006-1.677-22.355-2.44-10.087-1.062-20.184-2.04-30.281-3-19.886-1.872-39.912-2.673-59.873-3.232a967.5,967.5,0,0,0-119.819,4.5q-15.466,1.481-30.9,3.474C851.513,461.921,897.563,458.037,942.775,459.331ZM769.491,490.963c1.062-.522,2.142-.987,3.2-1.49a3.911,3.911,0,0,0,.661.009c78.539-13.981,158.428-19.765,238.131-14.4,11,.745,21.972,1.472,32.935,2.692,2.468.279,4.937.624,7.414.969A1910.481,1910.481,0,0,1,829.773,491.9q-17.688,0-35.367-.307C786.312,491.447,777.771,490.627,769.491,490.963Zm59.472,12.369c-12.221-1.667-24.358-3.865-36.41-6.464q15.187.321,30.364.4,30.877.181,61.736-.6c41.849-1.053,83.652-3.241,125.371-6.818,9.659-.829,19.319-1.742,28.977-2.673A501.9,501.9,0,0,1,828.963,503.332ZM1317.4,677.9a337.816,337.816,0,0,1,15.741,41.281,1478.594,1478.594,0,0,0-112.8-144.177c-9.715-10.926-19.691-21.6-29.8-32.162A297.751,297.751,0,0,1,1317.4,677.9Zm2.627,31.436c-41.6-37.22-78.688-79.088-109.006-126.21-7.843-12.183-15.089-24.711-22.271-37.285,42.874,46.786,83.373,95.612,120.1,147.418C1312.62,698.58,1316.308,703.964,1320.025,709.338Zm-25.456-5.728a336.117,336.117,0,0,1-38.235-35.385,346.64,346.64,0,0,1-58.466-85.981,322.2,322.2,0,0,1-17.446-44.69l.159.074c14.25,29.685,32.609,57.74,52.113,84.165,20.668,28,42.855,55.066,67.613,79.6,9.054,8.97,18.554,17.5,28.2,25.838-4.276-2.766-8.662-5.393-12.891-8.234Q1304.805,711.718,1294.568,703.61ZM1225.186,739.5c-11.774,6.473-23.445,13.115-35.488,19.113q-22.146,11.024-45.109,20.287c-26.686,10.749-54.1,19.187-81.8,26.788,38.85-30.234,85.115-50.223,133.1-60.888C1205.607,742.646,1215.378,740.9,1225.186,739.5ZM1047.953,817.99c2.626-2.347,5.411-4.49,8.112-6.725,30.654-6.3,60.656-16.049,89.66-27.682q23.332-9.361,45.873-20.566c14.643-7.293,29.387-14.847,43.023-23.9a1.718,1.718,0,0,0,.68-.9q16.053-1.9,32.2-2.571c-3.419,1.872-6.771,3.865-10,5.486q-11.987,6.008-24.1,11.773-24.212,11.526-48.873,22.066c-32.917,14.065-66.1,27.133-100.064,38.459-15.937,5.319-32.013,10.209-47.968,15.48C1040.147,825.1,1044.059,821.474,1047.953,817.99Zm-16.058,16.086c33.327-7.7,66.02-19.467,98.033-31.315,33.588-12.435,66.682-25.689,99.18-40.769q13.678-6.357,27.216-13.012,6.762-3.339,13.487-6.743c4.08-2.068,8.5-3.9,11.942-6.967,13.561-.14,27.142.252,40.694,1.248q1.885,1.076,3.809,2.059c-37.583,15.667-74.971,31.669-113.216,45.706-38.328,14.074-77.384,26.4-116.578,37.779-22.308,6.483-44.756,12.388-66.934,19.253a.929.929,0,0,0-.633,1.025C1028.364,839.934,1030.078,836.618,1031.895,834.076Zm48.136,3.428q-12.225,2.305-24.487,4.49-6.329,1.159-12.677,2.273c-3.167.559-6.538,1.4-9.78,1.043-2.329-.261-3.5-1.146-4.014-2.338a1.011,1.011,0,0,0,1.089.587c39.9-7.833,79.088-20.045,117.827-32.3,39.214-12.407,78.222-25.773,116.7-40.294q19.518-7.363,38.962-15.108c-37.966,26.1-80.783,44.83-124.9,58.28C1146.387,824.007,1113.264,831.226,1080.031,837.5Zm473.4,173.964a793.471,793.471,0,0,1,54,59.956c-10.684-10.581-21.805-20.687-32.9-30.458-32.358-28.511-65.927-55.663-98.862-83.494q-29.2-24.674-58.6-49.133a1.2,1.2,0,0,0-1.491-.075c-.568-3.055-1.118-6.129-1.639-9.193C1463.848,932.072,1511.109,969.134,1553.433,1011.468Zm-133.81-83.755c-1.332-5.365-2.385-10.786-3.419-16.216,33.262,28.949,66.709,57.684,99.878,86.735,30.7,26.881,62.444,52.887,90.787,82.311,6.949,7.209,13.487,14.679,19.8,22.345-45.269-34.51-99.627-55.6-147.895-85.785-8.271-5.16-16.365-10.6-24.2-16.4-2.375-1.761-4.723-3.661-7.079-5.58a242.685,242.685,0,0,1-15.546-30.56A249.422,249.422,0,0,1,1419.623,927.713Zm98.052,142.035a238.088,238.088,0,0,1-61.67-61.531c4.471,3.241,9,6.408,13.609,9.445,14.046,9.249,28.641,17.613,43.377,25.68,30.039,16.449,60.627,32.125,88.971,51.434a298.8,298.8,0,0,1,37.779,30.132C1599.4,1105.682,1555.007,1095.148,1517.675,1069.748Zm89.344,298.1c20.482,16.3,40.322,33.438,60.068,50.614,2.729,2.375,5.421,4.8,8.113,7.21-2.216-1.276-4.387-2.627-6.613-3.875a1217.572,1217.572,0,0,0-139.818-102.579q-14.67-9.235-29.656-17.939a373.674,373.674,0,0,1,45.249,22.671C1566.287,1336.976,1587.068,1351.973,1607.019,1367.844Zm-14.791,34.882A267.419,267.419,0,0,1,1509,1336.157a280.821,280.821,0,0,1-17.483-23.37c-2.711-4.033-5.31-8.141-7.844-12.285a52.174,52.174,0,0,0-4.8-7.293c.68.252,1.342.54,2.012.792a1.359,1.359,0,0,0,.661,1.267c54.433,32.647,106.8,67.688,155.922,107.944.783.634,1.537,1.295,2.31,1.937q-17.632-10.786-34.919-22.131-38.59-25.247-75.773-52.6-21.265-15.634-42.222-31.734a1.373,1.373,0,0,0-1.667,2.18c48.351,39.428,99.738,74.757,152.411,108.121,9.081,5.747,18.135,11.783,27.338,17.5.326.279.642.568.968.847a220.018,220.018,0,0,1-23.649-5.048A265.121,265.121,0,0,1,1592.228,1402.726Zm-159.136,184.154c29.414,43.461,63.561,83.457,101.088,120.109a754.361,754.361,0,0,0,125.092,98.6c11.336,7.135,22.885,13.906,34.575,20.435a430.238,430.238,0,0,1-103.082-50.94c-44.01-29.657-83.354-67.231-114.073-110.552-16.971-23.928-30.383-49.5-43.237-75.744C1433.324,1588.157,1433.213,1587.523,1433.092,1586.881Zm10.478,8.485c6.474,6.483,13.525,12.481,20.212,18.657q14.112,12.994,28.334,25.866,28.4,25.764,57.078,51.257c38.04,33.8,75.717,67.967,114.268,101.2,9.268,7.982,18.611,15.872,27.9,23.826a781.808,781.808,0,0,1-85.608-55.569,751.146,751.146,0,0,1-116.038-107.069C1473.4,1634.915,1458.055,1615.448,1443.57,1595.366Zm81.79,55.308c30.159,25.372,58.689,52.561,87,79.954,22.355,21.619,44.588,43.359,67.11,64.791-59.957-49.487-119.336-99.7-177.364-151.442q-15.607-13.916-31.138-27.915c-10.721-9.612-21.06-20.2-32.721-28.669a.728.728,0,0,0-.447-.112c-.736-1.043-1.49-2.077-2.226-3.111C1466.177,1605.537,1496.727,1626.588,1525.36,1650.675Zm-91.672-67.827a1.767,1.767,0,0,0-1.229.717c-.112-.605-.243-1.211-.345-1.816Zm226.7,244.194c-28.735-9.454-56.79-21.618-82.768-37.183-49.077-29.377-91.113-70.473-117.659-121.468-10.665-20.492-18-42.027-23.258-64.251,8.6,18.88,19.4,36.95,30.859,54.051a453.882,453.882,0,0,0,182.3,158.195,435.915,435.915,0,0,0,68.525,25.708c-4.825-.959-9.659-1.881-14.465-2.971Q1681.892,1834.093,1660.391,1827.042Zm124.123,287.776c2.7,8.457,5.123,16.989,7.47,25.549-.093-.177-.187-.354-.279-.531q-6.609-13.106-13.1-26.276-13.175-26.714-25.987-53.6c-17.074-35.86-33.159-72.158-48.733-108.689q-6.427-15.089-12.705-30.234c-1.257-3.037-2.487-6.11-3.726-9.175A825.813,825.813,0,0,1,1784.513,2114.818Zm-48.826-42.743c-20.483-38.86-34.761-80.672-46.274-122.969-4.918-18.06-9.249-36.261-13.477-54.489l.121.186c2.3,7.675,5.392,15.126,8.392,22.55q5.657,14,11.437,27.962,11.555,27.915,23.687,55.579c16.029,36.633,32.311,73.164,49.506,109.257q7.236,15.2,14.632,30.309c.3.624.586,1.267.884,1.891A348.491,348.491,0,0,1,1735.688,2072.075ZM1599.5,2029.359a617.515,617.515,0,0,1,149.318,101.554c-1.3-.931-2.6-1.909-3.893-2.822-13.245-9.314-26.955-17.949-40.973-26.052-27.915-16.123-56.976-30.15-86.438-43.219-59.649-26.471-121.04-49.124-179.367-78.548-16.468-8.308-32.628-17.185-48.3-26.927q-11.541-7.168-22.719-14.912c-7.4-5.151-14.474-10.776-21.991-15.741.009-.158-.019-.317,0-.466C1427.8,1962.929,1516.6,1989.168,1599.5,2029.359Zm-253.211-97.949a27.673,27.673,0,0,1-1.052-4.834c11.214,10.041,24.376,18.414,36.96,26.5,13.254,8.514,26.881,16.459,40.685,24.05,28.54,15.695,58.084,29.48,87.881,42.622,59.556,26.276,120.5,50,177.317,82.023,11.951,6.735,23.6,14.009,35.05,21.581q-16.458-8.089-33.131-15.741-46.358-21.209-94.653-37.76c-62.2-21.312-128.659-36.242-184.061-73.211C1385.179,1979.21,1363.84,1957.182,1346.291,1931.409Zm79.843,91a321.049,321.049,0,0,1-48.639-45.035c-1.9-2.179-3.689-4.461-5.524-6.7a257.317,257.317,0,0,0,25.065,21.181c24.767,18.526,52.571,32.628,81.1,44.355,32.032,13.161,65.34,22.95,98.136,33.969q49.165,16.529,96.627,37.6,26.518,11.82,52.225,25.289c4.108,2.133,8.151,4.387,12.221,6.586-24.291-8.43-49.682-14.093-74.58-20.026C1579.737,2099.822,1495.153,2074.59,1426.134,2022.411Zm540.875,154.078c-.736.625-1.481,1.24-2.226,1.854.512-.838,1.08-1.649,1.6-2.5A1.866,1.866,0,0,0,1967.009,2176.488Zm227.718-142.77a1005.482,1005.482,0,0,0-186.455,109.928c-11.96,8.933-23.612,18.247-35.134,27.729,44.263-53.018,101.173-95.081,165.6-120.323A401.242,401.242,0,0,1,2194.727,2033.718ZM2132.907,2046a407.664,407.664,0,0,0-126.088,82.553,381.566,381.566,0,0,0-34.771,38.431C2010.182,2110.161,2067.921,2067.3,2132.907,2046Zm-101.545-19.672c-14.875,31.874-30.99,63.143-47.019,94.448,9.938-37.639,20.137-75.157,32.833-112.005a1265.561,1265.561,0,0,1,50.222-123.48c8.942-19.113,18.452-37.956,28.288-56.622C2085.357,1897.477,2060.712,1963.4,2031.362,2026.332Zm66.411-213.15a3.43,3.43,0,0,0-2.7,1.826c-42.315,79.423-75.837,163.513-100.893,249.922q-3.689,12.728-7.1,25.521a631.954,631.954,0,0,1,68.507-213.559c11.205-21.013,23.677-41.458,36.876-61.3,1.853-1.434,3.65-2.943,5.551-4.312C2097.95,1811.915,2097.849,1812.549,2097.774,1813.182Zm-47.653,44.038a237.531,237.531,0,0,1,32.946-34.137c-48.789,70.119-81.36,152.122-97.009,235.849a638.6,638.6,0,0,0-9.295,73.723C1977.246,2036.345,1988.843,1935.191,2050.121,1857.22Zm72.858,254.329a397.98,397.98,0,0,1-62.071,29.973c-20.091,7.638-40.7,13.832-60.6,21.963-7.488,3.055-15.35,6.594-23.006,10.647a1082.986,1082.986,0,0,1,180.251-114.343q29.817-14.977,60.46-28.157a3.4,3.4,0,0,0,.7-.484l.243-.009A394.554,394.554,0,0,1,2122.978,2111.549Z" transform="matrix(0.857, 0.515, -0.515, 0.857, 673.786, -420.311)" fill="#9b6446" opacity="0.15"/>
</svg>
