<svg xmlns="http://www.w3.org/2000/svg" width="4865.377" height="14977.653" viewBox="0 0 4865.377 14977.653"><g transform="translate(2383.378 -13149.782)"><path d="M5926.79,8004.208c-21.216-260.906,86.9-514.781-13.7-758.161l-30.571-2.151q-23.89,162.01-47.792,324.043l-42.187,4.108c-17.875-35.491-48.139-69.838-51.476-106.625-15.726-173.5-51.546-351.342-28.882-520.754,38.326-286.533,3.561-549.261-126.609-806.057-74.163-146.331-129.482-302.149-194.886-453-98.212-226.447-159.069-460.712-178.241-708.286-23.918-308.67-137.085-593.688-270.087-875.786-1.337,22.62-4.148,45.263-3.8,67.861,9.4,592.042,5.292,1184.764,34.787,1775.8,14.078,282.294,97.16,560.593,140.028,842.054,134.053,880.222,101.288,1755.042-81.763,2626.677-61.47,292.749-101.9,590.614-136.6,887.931-15.9,136.1,17.833,277.486,7.095,414.77-23.037,294.524-48.687,589.823-95.334,881.273-41.487,259.147-124.942,511.529-167.151,770.61-36.281,222.517-48.668,450.02-55.87,675.829-4.7,146.833-181.871,190.668-72.041,264.547,81.1,54.553,54.316,129.757,33.193,165.968,28.486,16.055,1.051,111.372,0,135.792-1.077,24.926-3.849,43.631-33.193,51.934-293.163,82.994-43.94,70.123-342.224,0-62.964-14.823-86.355-55.826-85.013-120.854,5.271-255.7,10.127-511.488,8.918-767.209-.662-142.091-23.083-284.379-19.306-426.144,14.582-547.679,43.132-1095.07,50.953-1642.794,3.251-228.248-28.485-457.439-51.193-685.532q-106.408-1069.214-218.541-2137.9c-3.272-31.779-12.609-62.921-19.106-94.369q-18.318.427-36.635.834c-9.97,68.717-22.4,137.172-29.559,206.176-74.229,716.1-129.858,1434.753-227.72,2147.584-61.227,446,11.2,881.824,14.912,1322.288,3.01,357.643-8.672,715.4-9.751,1073.087-.966,317.829,4.019,635.659,5.71,953.488.769,146.526-16.185,183.512-162.274,187.77-243.072,7.116-486.891-9.4-730.291-18.666-31.668-1.208-66.1-13.045-93.1-29.845-25.5-15.879-53.982-42.364-59.757-68.851-3.6-16.6,28.79-47.239,51.325-61.888,33.338-21.632,74.032-31.646,108.468-51.9,84.616-49.787,173.363-95.159,249.573-155.928,105.349-84.046,138.269-195.811,141.938-337.025,11.729-450.959-141.391-870.843-219.088-1304.652-67.688-377.891-107.946-754.095-94.043-1142.727,11.332-316.886-49.433-641.324-114.132-955-159.114-771.446-235.036-1546.385-157.311-2331.953,25.868-261.518,52.223-525.386,110.817-780.734,96.675-421.466,108.071-846.776,109.019-1274.633q1.084-477.04,3.4-954.123c.136-34.392.025-68.784.025-103.154l-45.4-8.169c-73.306,268.7-178.108,533.536-211.865,807.133-41.42,335.838-130.6,649.779-265.8,955.683-73.792,167.019-138.82,337.9-212.762,504.855-53.631,121.118-61.563,243.466-48.979,374.182,22.71,235.539,63.626,472.943-9.112,707.472-13.045,42.1-34.633,81.544-52.29,122.216l-45.089-1.515c-15.9-106.01-31.8-212.019-47.459-316.488-73.484,45.2-89.669,121.973-70.585,353.339,10.456,126.785,22.1,253.5,34.918,399.878-116.177-32.965-192.515-81.391-233.013-179.821-166.622-405.083-118.2-800.238,49.526-1192.012,23.408-54.662,35.53-118.221,36.192-177.823,2.021-182.7.791-365.75-8.171-548.208-14.386-292.045,45.636-574.252,100.758-857.536,75.33-387.1,151.976-773.95,224.756-1161.53,11.929-63.578,12.981-130.8,8.543-195.634-20.114-294.835-2.592-584.531,106.208-863.027,121.405-310.823,338.866-505.293,666.887-593.645,172.709-46.515,348.135-119.779,493.742-221.813,235.562-165.085,237.647-497.738,30.374-700.422-105.549-103.22-154.85-351.694-100.5-494.62,8.611-22.62,7.577-49.589,7.731-74.56.329-62.108-2.767-124.259-1.781-186.366C3109.021,282.89,3261.7,75.309,3525.588-2.721c197.282-58.33,397.836-57.869,594.726,2.394C4373.685,77.241,4523.661,280.123,4536,545.222c5.644,121.448,6.3,240.172,34.94,363.795,33.471,144.42-31.6,298.942-139.716,409.65C4271.735,1482,4247.8,1775.93,4394.918,1949.032c132.011,155.291,311.221,235.934,501.648,273.949,510.477,101.946,742.571,446.722,816.8,922.411,29.537,189.2,10.717,385.6,20.2,578.4,4.788,97.708,18.734,195.635,36.9,291.893,92.129,488.075,205.209,973.075,274.1,1464.335,41.244,294.176,21.305,597.949,15.637,897.156-2.217,116.99,18.295,219.727,63.315,326.35,153.865,364.453,176.857,735.1,31.471,1109.743C6116.033,7913.661,6043.1,7970.012,5926.79,8004.208Z" transform="translate(-3770.402 13535.105)" fill="#fff" opacity="0.41"/><path d="M1779.151,4316.84c0,142.085-5.51,284.6.9,426.182,34.026,751.558-72.247,1474.084-240.294,2185.3-44.48,188.276-84.39,379.134-116.369,571.813-13.064,78.685-7.932,167.572,3.667,247.979,26.224,181.67,65.893,359.847,91.967,541.566,21.372,149.1.224,288.1-99.055,421.879-12.127-172.557-22.446-319.5-32.766-466.447q-14.1,2.087-28.22,4.2c-58.992,252.232,27,478.4,90.6,714.075-192.506-49.733-394.113-416.487-378.565-685.474,7.973-137.656,18.8-281.338,55.12-408.415,82.117-287.311,81.948-582.593,83.453-881.7,1.747-345.216,5.561-691.042,23.066-1035.273,8.627-169.951,60.5-335.372,74.219-505.576,23.217-287.613,41.078-577.2,43.991-866.284,3.8-374.551-7.256-749.482-15.755-1124.11-6.541-288.829,90.068-511.853,259.1-662.9,122.42-109.386,268.228-171.47,403.884-253.877,87.567-53.225,181.469-92.455,262.062-160.46,118.492-100,143.909-266.86,135.864-443.62-1.129-25.056-18.913-48.821-29.251-72.991-55.139-128.875-110.654-257.471-165.4-386.649-20.886-49.251-49.971-97.112-57.886-150.311-14.285-96.023-24.043-196.273-19.719-293.486,4.531-101.718,36.322-201.133,41.453-302.9,19.664-390.066,210.065-632.6,499.969-639.235,190.344-4.353,363.241,39.634,481.189,263.115C3178.291,413.7,3206,484.8,3218.014,556.37c29.854,177.8,58.917,357.721,69.22,538.757,4.847,85.621-33.523,175.924-53.3,263.7-8.967,39.761-16.563,81.344-31.3,117.283-53.373,130.267-110.016,258.129-164.212,387.813-12.728,30.422-27.938,63.8-29.61,96.985-12.352,245.272,74.39,411.225,237.869,505.1,68.542,39.356,145.75,52.365,213.031,94.606,131.917,82.786,269.81,158.764,386.536,272.353,147.8,143.832,227.754,352.734,222.377,610.23-8.779,420.943-24.178,842.266-18.159,1262.93,4.058,284.35,37.56,568.268,62.545,851.631,22.747,257.875,57.375,514.029,76.023,772.334,12.352,171.319,9.776,345.244,6.844,517.8-6.354,375.513,9.606,742.675,97.625,1106.9,111.761,462.549,7.032,733.664-267.7,986.857-14.852,13.691-32.634,21.588-77.17,50.289,66.586-262.763,158.028-492.036,96.026-745.483q-13.816-2.051-27.671-4.075c-9.983,145.756-19.966,291.513-31.81,464.323-28.723-42.621-58.033-66.562-63.73-98.2-18.1-100.629-28.631-203.891-39.139-306.671-2.406-23.513,4.342-50.7,11.393-73.7,134.641-439.418,83.619-868.991-26.078-1301.83-62.488-246.537-99.427-504.614-155.657-754.316-100.915-448.049-77.962-908.877-86.175-1366.6-2.914-162.358-.471-324.894-.471-487.328l-36.02-3.8c-43.371,329.6-84.242,659.837-131.164,988.528-24.644,172.812-8.854,332.31,47.694,490.29,312.614,873.345,362.546,1783.414,213.185,2724-81.044,510.461-156.561,1022.847-222.358,1537.208-18.951,148.057-7.859,308.822,10.94,458.905,73.224,584.239,39.423,1156.707-75.4,1725.709-114.731,568.445-223.165,1139.194-333.612,1709.184-7.049,36.369-6.992,75.117-11.467,112.5-39.291,329.121,44.084,576.468,264.9,738.12,29.14,21.334,69.915,80.582,64.333,106.019-9.267,42.417-49.724,97.87-80.461,102.049-150.716,20.422-302.614,34.215-454.005,32.849-76.344-.683-104.75-75.294-103.829-184.326,5.792-682.184,19.852-1364.953,5.15-2046.528-13.271-615.521-6.183-1228.027,25.886-1841.854,10.906-208.345-15.715-420-22.6-630.3q-36.349-1110.29-71.118-2220.681c-1.315-40.571-6.222-80.915-29.891-121.864-18.31,520.913-37.805,1041.727-54.5,1562.743-11.186,349.09-22.708,698.355-26,1047.7-2.538,268.91,9.907,538,11.466,807.06q5.388,927.646,6.5,1855.367c1.281,534.812,0,1069.62,3.16,1604.4.584,98.453-28.8,149.35-96.874,168.61-156.372,44.238-311.541,36.217-462.839-31.536-31.432-14.069-72-56.464-76.832-93.312-4.25-32.348,29.4-91.52,57.093-110.884,260.165-181.846,322.971-482.089,260.464-834.115-101.7-572.772-215.083-1141.977-331.074-1709.891-109.262-535.036-172.6-1082.07-85.914-1623.661,75.592-472.346-33.294-899.49-89-1342.833-55.269-439.924-128-876.229-174.685-1317.672-73.635-696.332,5.02-1371.886,220.912-2009.552,98.206-290.068,130.373-570.622,76.214-878.963-44.931-255.7-75.632-515.929-112.629-774.159Z" transform="translate(-2307.891 13059.941)" fill="#fff" opacity="0.47"/></g></svg>