<?xml version="1.0" encoding="utf-8"?>
<!-- Generator: Adobe Illustrator 27.5.0, SVG Export Plug-In . SVG Version: 6.00 Build 0)  -->
<svg version="1.1" id="Group_342" xmlns="http://www.w3.org/2000/svg" xmlns:xlink="http://www.w3.org/1999/xlink" x="0px" y="0px"
	 viewBox="0 0 50.6 48.3" style="enable-background:new 0 0 50.6 48.3;" xml:space="preserve">
<style type="text/css">
	.st0{clip-path:url(#SVGID_00000168811027071324877800000016973351448546619069_);}
	.st1{fill:#FFFFFF;stroke:#000000;stroke-width:0.25;stroke-miterlimit:10;}
</style>
<g>
	<defs>
		<rect id="SVGID_1_" x="3.4" y="3.2" width="43.8" height="41.8"/>
	</defs>
	<clipPath id="SVGID_00000018231804770366654460000001548701022305617564_">
		<use xlink:href="#SVGID_1_"  style="overflow:visible;"/>
	</clipPath>
	<g id="Group_110" style="clip-path:url(#SVGID_00000018231804770366654460000001548701022305617564_);">
		<path id="Path_581" class="st1" d="M18.7,28.8c-2.1-3.3-4.1-6.5-6.1-9.7c-0.5-0.8-1-1.6-1.5-2.5c-1-1.8-0.4-4.1,1.4-5.3
			c1.7-1.1,4.2-0.8,5.3,0.9c1.1,1.6,2.1,3.2,3.1,4.8c0.2,0.3,0.4,0.6,0.6,1c1.4-1.4,3-1.6,4.8-0.9c1.4-1.9,3.1-2.6,5.4-1.7
			c1.1-1.7,2.6-2.4,4.6-2c1.1,0.2,2,0.9,2.5,1.8c2.1,3.8,4.3,7.5,6.2,11.4c3.6,7.3-1.2,16.3-9.2,17.6c-1.9,0.3-3.9,0.1-5.7-0.7
			c-5.6-2.6-11.2-5.3-16.8-7.9c-2-0.9-2.8-2.8-2.3-4.8c0.2-0.5,0.5-0.9,1-1.2C13.8,28.4,16,28.2,18.7,28.8 M44.5,31.5
			c-0.3-1.2-0.4-2.6-1-3.7c-2-4-4.2-7.9-6.4-11.8c-0.6-1-1.9-1.2-2.9-0.6c-0.4,0.3-0.7,0.7-0.9,1.2c-0.4,1.5-0.9,1.7-2.1,0.8
			c-1.4-1-2.9-0.4-3.4,1.2c-0.3,1.3-1,1.5-2,0.7c-1.3-0.9-2.6-0.5-3.3,0.8c-0.2,0.4-0.7,0.9-1.1,1c-0.3,0-0.8-0.4-1.1-0.8
			c-1.4-2.1-2.6-4.3-4-6.3c-0.4-0.5-1-0.9-1.6-1.1c-0.8-0.2-1.5,0.3-1.9,0.9c-0.5,0.7-0.4,1.7,0.1,2.4c3,4.8,5.9,9.5,8.9,14.3
			c0.1,0.2,0.3,0.4,0.3,0.5c0,0.4,0,1-0.2,1.3c-0.2,0.2-0.8,0.2-1.2,0.1c-0.6-0.3-1.2-0.6-1.8-1c-1.5-1.1-3.2-1-4.9-0.6
			c-1.1,0.3-1.3,0.9-0.8,1.9c0.2,0.4,0.5,0.7,0.9,0.9c5.6,2.7,11.2,5.3,16.8,7.9c1.1,0.5,2.4,0.7,3.6,0.6
			C39.9,41.8,44.3,37.1,44.5,31.5"/>
		<path id="Path_582" class="st1" d="M14.2,4.1c4.8,0,8.9,3.4,9.8,8.1c0.1,0.7,0,1.2-0.7,1.4c-0.7,0.2-1.1-0.2-1.3-0.9
			c-0.4-2.2-1.7-4.1-3.5-5.3C14,4.3,7.2,7.3,6.6,12.9c-0.5,3.8,1.2,6.8,4.7,8.4c0.2,0.1,0.3,0.1,0.5,0.2c0.6,0.3,0.9,0.7,0.6,1.4
			c-0.2,0.5-0.8,0.8-1.3,0.6c0,0-0.1,0-0.1-0.1c-2.8-1-4.9-3.2-5.9-6C2.6,11,7.5,4.1,14.2,4.1"/>
	</g>
</g>
</svg>
