<svg xmlns="http://www.w3.org/2000/svg" xmlns:xlink="http://www.w3.org/1999/xlink" width="304.32" height="195.954" viewBox="0 0 304.32 195.954">
  <defs>
    <clipPath id="clip-path">
      <rect id="Rectángulo_109" data-name="Rectángulo 109" width="304.32" height="195.954" fill="#fe6d02"/>
    </clipPath>
  </defs>
  <g id="Grupo_501" data-name="Grupo 501" transform="translate(304.32 195.954) rotate(180)" opacity="0.24">
    <g id="Grupo_304" data-name="Grupo 304" transform="translate(0 0)" clip-path="url(#clip-path)">
      <path id="Trazado_8299" data-name="Trazado 8299" d="M0,195.532V175.565c27.349-4.05,49.235-16.117,59.679-44.962-5.268-2.116-10.25-4.023-15.158-6.1C15.385,112.162-1.161,80.376,5.979,50.531,13.333,19.77,41.337-1.449,72.573.077A64.607,64.607,0,0,1,134.086,56.41C143.6,126.314,72.21,201.411,0,195.532" transform="translate(0 0.096)" fill="#fe6d02"/>
      <path id="Trazado_8300" data-name="Trazado 8300" d="M58.687,130.516c-5.383-2.019-9.548-3.5-13.656-5.135C13.677,112.93-2.875,80.355,5.667,47.98,13.762,17.3,44.218-3.371,75.671.455c33.466,4.074,57.726,31.2,57.856,64.7C133.8,136.343,67.492,201.665,0,195.484V175.3c27.052-3.851,48.356-16.361,58.687-44.783" transform="translate(170.793 0.002)" fill="#fe6d02"/>
    </g>
  </g>
</svg>
