<svg xmlns="http://www.w3.org/2000/svg" xmlns:xlink="http://www.w3.org/1999/xlink" width="304.32" height="195.954" viewBox="0 0 304.32 195.954">
  <defs>
    <clipPath id="clip-path">
      <rect id="Rectángulo_109" data-name="Rectángulo 109" width="304.32" height="195.954" fill="#fe6d02"/>
    </clipPath>
  </defs>
  <g id="Grupo_502" data-name="Grupo 502" opacity="0.24">
    <g id="Grupo_304" data-name="Grupo 304" transform="translate(0 0)" clip-path="url(#clip-path)">
      <path id="Trazado_8299" data-name="Trazado 8299" d="M0,195.564V175.6c27.349-4.05,49.235-16.117,59.679-44.962-5.268-2.116-10.25-4.023-15.158-6.1C15.385,112.194-1.161,80.408,5.979,50.562,13.333,19.8,41.337-1.418,72.573.109a64.607,64.607,0,0,1,61.513,56.333C143.6,126.346,72.21,201.443,0,195.564" transform="translate(0 0.064)" fill="#fe6d02"/>
      <path id="Trazado_8300" data-name="Trazado 8300" d="M115.192,130.516c-5.383-2.019-9.548-3.5-13.656-5.135-31.354-12.45-47.905-45.025-39.364-77.4,8.095-30.677,38.55-51.351,70-47.525,33.466,4.074,57.726,31.2,57.856,64.7C190.3,136.344,124,201.666,56.505,195.484V175.3c27.052-3.851,48.356-16.361,58.687-44.783" transform="translate(114.288 0.002)" fill="#fe6d02"/>
    </g>
  </g>
</svg>
