<svg xmlns="http://www.w3.org/2000/svg" width="1883.685" height="2025.429" viewBox="0 0 1883.685 2025.429">
  <path id="Trazado_6445" data-name="Trazado 6445" d="M1782.694,1421.892c-59.9-.8-118.766,24.235-160.739,66.812-1.527,1.546-2.963,3.184-4.438,4.776,23.118-43.909,45.547-88.416,61.238-135.574,9.648-28.985,16.665-58.9,19.394-89.358a3.557,3.557,0,0,0-5.647-3.19c-27.652,17.842-48.769,44.117-63.472,73.329-16.594,32.98-24.58,69.593-27.971,106.167-2.073,22.318-2.482,44.754-2.287,67.156a3.586,3.586,0,0,0,.662,2.014c-1.28,2.469-2.553,4.951-3.833,7.42-1.591,2.436-3.21,4.866-4.7,7.375a3.552,3.552,0,0,0-.429,2.605q-4.142,8.1-8.141,16.27c-.312.435-.689.831-.988,1.28a1.624,1.624,0,0,0-.234,1.28c-4.412,9.116-8.668,18.3-12.488,27.653-5.757,14.1-10.377,28.8-12.293,43.948a115.483,115.483,0,0,0-.728,19.486c-2.625-7.231-5.088-14.534-7.466-21.87a2.581,2.581,0,0,0,.065-.494c-.072-3.853-2.06-8.037-3.886-11.715-12.014-39.536-20.779-80.3-27.809-121.13a46.787,46.787,0,0,0-1.624-9.454c-.117-.721-.253-1.436-.37-2.157-8.031-48.7-14.652-97.656-21.292-146.58,34.923-48.743,61.932-103.431,83.25-159.3,1.417-3.71,2.723-7.459,4.088-11.188a4.009,4.009,0,0,0,2.865.89c29.778-2.04,59.25-12.949,86.116-25.379,13.716-6.341,27.12-13.333,40.426-20.479,11.755-6.315,23.982-12.313,34.7-20.317,10.552-7.868,19.492-18.342,21.143-31.818.325-2.644-1.91-4.366-4.347-4.236-.838.039-1.676.13-2.521.182a2.479,2.479,0,0,0-3.313-.039l-.4.312c-52.265,4.054-103.665,24.82-143.345,59.178a182.838,182.838,0,0,0-26.217,27.458,829.147,829.147,0,0,0,38.172-160.491,808.487,808.487,0,0,0,6.842-108.4c-.006-3.476-3.761-5.185-6.211-2.527a257.187,257.187,0,0,0-49.25,272.038,3.5,3.5,0,0,0,1.715,1.865,850.392,850.392,0,0,1-40.843,96.765c-13.372,26.88-28.3,52.947-43.812,78.644q-2.69-19.814-5.412-39.615-14.512-104.439-29.011-208.884-4.288-30.827-8.368-61.816c2.657-19.174,5.7-38.283,10.136-57.144a503.672,503.672,0,0,1,16.445-55.1,4.377,4.377,0,0,0,4.8.058c53.616-33.292,97.1-84.758,119.8-143.767,6.939-18.03,11.13-38.049,4.107-56.7-.767-2.047-3.892-3-5.562-1.423-1.7,1.6-3.326,3.275-5,4.9a180.347,180.347,0,0,0-35.085,20.057,210.66,210.66,0,0,0-33.923,30.421c-21.564,23.943-36.788,52.83-45.435,83.809a198.331,198.331,0,0,0-5.653,27.432q-.925,7.046-1.358,14.138a80.827,80.827,0,0,0-.208,12.156,494.906,494.906,0,0,0-16.263,53.506,456.19,456.19,0,0,0-9.311,48.925c-4.776-35.515-9.675-71.068-15.34-106.485l.013-1.085a3.341,3.341,0,0,0,.312-3.307c-.078-.2-.176-.4-.267-.6.15-7.478.462-14.957,1.111-22.4a316.311,316.311,0,0,1,6.628-41.849c6.225-27.731,16.01-54.636,28.017-80.366,24.82-53.181,59.392-100.8,95.869-146.5,18.5-23.183,37.541-45.93,56.15-69.028,9.356-11.617,18.628-23.306,27.7-35.157,5.913-7.719,17.608-19.94,12.28-30.726-6.322-12.806-24.787-1.884-33.4,2.164a259.877,259.877,0,0,0-149.342,222.879c-.325,6.835-.357,13.67-.176,20.506a3.216,3.216,0,0,0,.507,1.663c-3.827,6.939-7.536,13.943-11.039,21.077-20.837,42.4-35.6,88.364-38.88,135.58-.513-3-.994-6.01-1.527-9.005,1.682-17.432.565-35.242-1.157-52.59-2.021-20.4-5.432-40.634-9.388-60.737-8-40.66-18.083-80.944-24.073-121.982a499.307,499.307,0,0,1-5.244-74.161,385.274,385.274,0,0,0,71.751-93.712,370.718,370.718,0,0,0,24.43-54.929c6.718-19.18,12.488-39.075,14.853-59.308,2.606-22.286.728-45.819-10.909-65.48-1.2-2.034-3.71-3.164-5.808-1.481-28.809,23.053-48.918,54.864-63.525,88.377a447.394,447.394,0,0,0-28.179,91.314q-1.433-13.557-3.931-26.971a350,350,0,0,0-35.956-102.022,339.671,339.671,0,0,0-33.877-51.108c-1.839-2.287-5.991-1.371-6.251,1.735-.175,2.073-.247,4.139-.377,6.211a1.214,1.214,0,0,0-.078.76l.026.117c-4.347,72.257,17.14,143.059,45.495,208.793,7.784,18.043,15.7,36.463,25.275,53.675a4.243,4.243,0,0,0,.143,5.25,479.823,479.823,0,0,0,3.021,54.3c4.762,41.6,14.671,82.354,23.365,123.242,7.569,35.58,13.878,71.289,16.126,107.544-9.844-51.57-22.052-102.587-38.653-152.4-32.155-96.505-83.562-190.106-160.147-258.27a1.626,1.626,0,0,0,.78-2.086c-8.745-23.813-17.212-47.632-23.579-72.205-1.566-6.043-2.989-12.118-4.334-18.206a4.229,4.229,0,0,0,1.026-1.046,2.993,2.993,0,0,0,2.216-2.151,720.606,720.606,0,0,0,34.378-223c-.065-18.654-.4-38.607-10.071-55.182-1.215-2.073-4.223-3.021-5.86-.715-28.413,40.03-36.723,90.762-39.426,138.758a521.854,521.854,0,0,0,3.547,96.538,289.652,289.652,0,0,0-16.7-36.859,305.488,305.488,0,0,0-51.167-69.47c-4.971-5.009-10.09-9.869-15.392-14.528-5-4.4-10.955-8.947-18.043-7.368-7.42,1.65-9.766,8.57-7.842,15.353,1.917,6.738,4.86,13.346,7.608,19.784a336.869,336.869,0,0,0,42.915,73.115,330.657,330.657,0,0,0,66.585,65.13c.825,3.775,1.618,7.563,2.534,11.318,6.64,27.263,15.223,54.48,27.418,79.807-7.186-6.27-14.515-12.391-22.149-18.193a452.048,452.048,0,0,0-83.355-49.7,2.11,2.11,0,0,0-.7-2.053c-14.535-13.157-30.271-24.95-45.079-37.808q-6.588-5.721-13.066-11.578c-22.884-54.6-23.026-124.5-73.2-163.922-11.793-9.272-25.6-15.821-40.5-17.978a3.593,3.593,0,0,0-3.963,4.054c5.542,36.9,20.733,71.75,41.329,102.678,18.5,27.789,41.337,52.349,65.916,74.869a39.31,39.31,0,0,0,2.443,5.146,1.9,1.9,0,0,0,2.807.643,3.426,3.426,0,0,0,1.715.507c1.871,1.67,3.729,3.359,5.62,5,13.462,11.708,27.373,23.332,41.953,33.793-73.5-31.486-154.215-46.853-233.2-57.144-14.794-1.93-29.53-3.346-44.416-4.282a1.5,1.5,0,0,0-.37,2.982c58.736,10.961,117.895,18.089,175.9,33.013,34.521,8.882,68.684,20.116,101.391,34.521-6.913-.058-13.833-.039-20.746-.331-12.943-.552-25.872-1.611-38.75-3-25.515-2.748-50.848-6.868-76.234-10.539-46.007-6.653-93.042-11.65-139.316-4.425-24.768,3.866-49.016,11.364-70.964,23.6-2.339,1.306-3.2,5.6.052,6.556a357.116,357.116,0,0,0,183.362,4.7A359.58,359.58,0,0,0,985.227,347.9a3.3,3.3,0,0,0,1.923-4.347c14.483,2.105,28.972,4.165,43.494,5.822,14.106,1.611,28.244,2.872,42.428,3.294,11.624.351,23.527.65,35.092-1.02a465.292,465.292,0,0,1,53.714,29.193c72.744,46.339,127.576,113.879,167.307,189.5-20.35-10.065-41.94-18.18-63.343-25.593a534.889,534.889,0,0,0-68.749-19.109c-9.837-1.995-19.765-3.587-29.738-4.834a4.154,4.154,0,0,0-2.729-2.242c-4.671-23.5-15.1-45.923-28.25-65.812a211.12,211.12,0,0,0-52.544-54.6,195.21,195.21,0,0,0-37.938-21.441c-2.339-.988-5.854,1.157-5.055,3.957,13.82,48.678,41.466,92.327,80.385,124.847q8.08,6.754,16.731,12.78l.071.052a303.179,303.179,0,0,0-72.147,5.146c-39.815,7.881-78.436,24.365-109.467,50.868q-5.779,4.941-11.162,10.311c-3.489,3.489-6.991,7.329-7.959,12.345a9.8,9.8,0,0,0,5.243,10.747c4.535,2.229,9.928.955,14.645.169,24.4-4.08,48.743-8.661,72.712-14.788,44.234-11.305,87.792-28.27,123.976-56.7,1.007-.793,1.943-1.67,2.93-2.482.085-.032.156-.019.247-.058q3.713-1.725,7.432-3.45a2.029,2.029,0,0,0,1.449-.676l1.514-.7a2.775,2.775,0,0,0,1.313-1.345c5.23.65,10.447,1.358,15.646,2.229,45.28,7.634,88.819,22.864,131.143,40.355,5.178,2.144,10.337,4.269,15.594,6.225a2.446,2.446,0,0,0,1.254.117,695.812,695.812,0,0,1,31.9,72.3c24.157,64.363,39.738,131.208,51.693,198.852-4.633-8.609-9.486-17.095-14.489-25.4a556.38,556.38,0,0,0-129.739-147.7,452.71,452.71,0,0,0-61.576-41.336c-1.559-.864-3.054,1.748-1.559,2.722l.3.2a7.1,7.1,0,0,0-.305,2.45c.046,2.027.13,4.054.3,6.075a116.116,116.116,0,0,0,1.793,12.436,159.466,159.466,0,0,0,6.446,23.663,172.773,172.773,0,0,0,7.686,17.881.844.844,0,0,0,.013.806c.286.448.669.845.987,1.267a179.176,179.176,0,0,0,14,23.2,174.51,174.51,0,0,0,34.027,35.632c14.1,11.059,29.946,19.148,46.495,25.859,20.226,8.213,41.343,14.736,60.114,26.113a4.608,4.608,0,0,0,5.419-.195c1.676,2.625,3.379,5.237,5.016,7.894,10.987,17.868,20.453,36.385,29.615,55.176,9.045,55.435,16.114,111.248,23.806,166.534.676,4.853,1.332,9.707,2,14.567-1.807-3.216-3.7-6.381-5.75-9.434-8.089-12.1-18.024-22.812-28.628-32.773a3.1,3.1,0,0,0-3-3.346c-.241-.019-.474-.052-.708-.071-2.255-2.053-4.529-4.093-6.816-6.095-14.424-12.6-29.231-24.846-44.227-36.769-14.515-11.533-29.349-22.708-45.176-32.4-17.478-10.708-35.949-19.837-55.974-24.573-1.241-.293-1.839,1.254-1.274,2.157-.026.052-.084.078-.1.137-.637,2.755.559,5.178,1.839,7.673,1.514,2.963,3.112,5.861,4.827,8.713a162.6,162.6,0,0,0,11,16.048,187.763,187.763,0,0,0,26.158,27.315,192.309,192.309,0,0,0,66.845,37.042c13.365,4.191,27.581,7.322,41.641,7.868a209.139,209.139,0,0,1,22.54,24.865,128.482,128.482,0,0,1,15.489,26.295,100.383,100.383,0,0,1,4.957,14.112c.04.143.052.286.091.429,11.279,82.081,22.3,164.221,33.878,246.269a3.828,3.828,0,0,0-1.137,1.338,24.355,24.355,0,0,0-2.384,9.051c-14.08-23.157-34.229-41.505-54.266-59.5-41.746-37.47-80.613-78.1-123.58-114.21-12.033-10.11-24.378-19.85-37.158-29-12.631-9.031-25.639-17.562-39.725-24.144a.9.9,0,0,0-.65-.026c-.968-1.007-3.112-.819-3.093.9.182,19.986,5.835,39.627,13.943,57.8a203.972,203.972,0,0,0,32.506,50.549c28.108,32.3,65.331,55.156,105.394,69.6a351.64,351.64,0,0,0,35.423,10.6q8.84,2.173,17.783,3.9c5.945,1.157,11.994,2.612,18.056,2.372a207.542,207.542,0,0,1,24.261,28.653,141.991,141.991,0,0,1,19.245,41.278,147.487,147.487,0,0,1,4.6,22.637c.6,4.951.858,9.928,1.209,14.892-.786-.611-2.151-.26-1.911.961,2.125,10.864,5.64,21.415,8.869,32.012,6.224,41.011,13.508,82.621,23.592,123.443-1.1-1.748-2.144-3.528-3.281-5.256-5.418-8.245-11.188-16.269-17.393-23.949-4.243-5.256-8.707-10.941-13.709-15.795a3.26,3.26,0,0,0-1.124-2.878c-1-.9-1.949-1.832-2.93-2.742-2.222-10.4-5.088-20.687-8.064-30.83-4.392-14.99-9.356-29.849-15.067-44.4a567.9,567.9,0,0,0-41.733-84.693c-9.161-15.269-19.122-30.044-29.732-44.344-1.735-2.333-6.081-.689-5.386,2.313,13.9,60.237,28.744,122.333,65.454,173.317-6.095-5.568-12.326-10.981-18.738-16.178a422.381,422.381,0,0,0-75.181-48.34c-29.167-14.769-59.653-26.685-90.262-38.062-34.242-12.728-68.82-24.937-102.113-40.023.052-.182.052-.364.11-.546.78-2.437-2.7-3.944-3.717-1.533-2.82,6.66-.948,13.677,2.3,19.817a136.048,136.048,0,0,0,11,16.88,207.3,207.3,0,0,0,27.718,30.395c20.551,18.673,44.384,33.7,69.5,45.436,28.7,13.4,59.042,22.865,89.638,30.843,29.479,7.693,60.2,12.722,88.2,25.151a121.75,121.75,0,0,1,38.763,26.8c4.386,5.471,8.616,11.072,12.729,16.75a81.51,81.51,0,0,1,8.154,18.582c.663,2.242,4.068,1.176,3.938-.975a428.453,428.453,0,0,1,21.727,37.237,3.815,3.815,0,0,0,1.5,1.54c16.023,51.693,37.873,101.229,69.651,145.528a340.364,340.364,0,0,0,25.717,31.636c3.671,4.015,10.363-1.059,6.731-5.257-33.273-38.51-57.677-81.821-76.226-127.751a115.785,115.785,0,0,1-1.391-36.652c1.625-13.722,5.581-27,10.643-39.829,5.074-12.871,10.994-25.45,17.257-37.86a123.178,123.178,0,0,1,12.4-8.8,149.766,149.766,0,0,1,19.973-9.772c14.184-5.828,28.952-10.045,43.337-15.308a278,278,0,0,0,81.692-47.08,282.154,282.154,0,0,0,38-38.237C1786.547,1425.511,1785.319,1421.924,1782.694,1421.892ZM1580.5,1135.443c-.176-.448-.312-.9-.481-1.345-.721-67.137,6.524-134.054,25.165-198.689,3.294-11.435,7.069-22.676,11.058-33.845-.259,1.559-.52,3.119-.8,4.652q-2.262,12.066-4.445,24.144c-3,16.516-5.829,33.058-8.661,49.6-5.672,33.091-10.825,66.26-15.126,99.559-2.319,17.926-4.574,35.853-6.042,53.863C1580.938,1134.065,1580.729,1134.761,1580.5,1135.443Zm159.712-49.711c-10,7.511-21.39,13.079-32.377,18.966-25.339,13.573-51.244,26.529-78.624,35.488a255.044,255.044,0,0,1-42.987,9.668c1.157-1.17,2.326-2.326,3.489-3.489,47.464-11.734,92.965-32.428,133.684-59.288a372.908,372.908,0,0,0,31.285-22.819c.845-.072,1.69-.169,2.534-.228C1754.521,1073.036,1747.738,1080.079,1740.214,1085.731Zm3.69-20.376c-16.568,12.709-33.558,24.7-51.739,35.164a469.105,469.105,0,0,1-69.2,32.415c-6.725,2.521-13.54,4.8-20.4,6.926q5.126-2.057,10.214-4.308,13.654-6.014,26.912-12.871a463.354,463.354,0,0,0,50.244-30.174q13.878-9.571,27.042-20.123a2.422,2.422,0,0,0,.935-2.378l.033-.013A236.149,236.149,0,0,1,1743.9,1065.356Zm-99.006,35.313a246.9,246.9,0,0,1,63-28.023,474.461,474.461,0,0,1-92.71,57.326c-5.3,2.482-10.676,4.775-16.023,7.141C1613.3,1123.644,1628.18,1111.13,1644.9,1100.669Zm-60.094,21.513c4.431-28.608,8.323-57.32,12.669-85.941,4.977-32.792,10.454-65.5,16.679-98.078q2.65-13.888,5.451-27.737,1.345-6.627,2.709-13.242c.338-1.637.708-3.281,1.072-4.931a832.26,832.26,0,0,1-22.1,170.718C1596.57,1082.925,1591.021,1102.664,1584.8,1122.182Zm-20.779-94.543A249.435,249.435,0,0,1,1594.66,924.59a234.642,234.642,0,0,1,16.315-25.32,638.822,638.822,0,0,0-21.35,77.754,601.966,601.966,0,0,0-12.742,101.521c-.6,15.8-.572,31.584.215,47.359A250.09,250.09,0,0,1,1564.025,1027.639Zm-82.719-139.466c30.564-47.041,60.458-94.485,92.2-140.752,4.6-6.705,9.266-13.372,13.93-20.038,2.027-2.9,4-5.874,6.023-8.823A338.919,338.919,0,0,1,1579.9,750.2c-6.2,13.118-13.008,25.957-20.311,38.5a463.045,463.045,0,0,1-50.647,70.535c-8.336,9.6-17.14,18.758-26.015,27.848C1482.385,887.445,1481.853,887.815,1481.307,888.173ZM1594.14,750.916a259.373,259.373,0,0,1-20.3,40.875,303.893,303.893,0,0,1-57.547,69.645c-6.589,5.88-13.476,11.4-20.558,16.646a446.425,446.425,0,0,0,39.056-46.534,507.425,507.425,0,0,0,46.086-74.726c7.258-14.58,13.073-29.739,19.863-44.52C1602.236,725.323,1598.805,738.74,1594.14,750.916Zm-2.5-36.528c-2.2,3.229-4.477,6.413-6.62,9.623q-5.936,8.888-11.825,17.809-11.783,17.816-23.631,35.606-23.829,35.817-47.041,72.056-10.126,15.818-19.928,31.844A503.827,503.827,0,0,1,1550.3,761.656,489.287,489.287,0,0,1,1591.639,714.388Zm-112.151,152.9a226.921,226.921,0,0,1,3.795-23.715,189.063,189.063,0,0,1,16.113-45.586,193.854,193.854,0,0,1,84.174-85.746,499.073,499.073,0,0,0-73.512,97.246,510.968,510.968,0,0,0-30.953,63.193C1479.234,870.877,1479.305,869.077,1479.488,867.284ZM1651.9,465.565c-2.521,5.776-7.174,10.7-10.981,15.652q-12.952,16.822-26.353,33.3c-18.166,22.474-36.607,44.715-54.623,67.313-27.516,34.507-54.013,70.094-76.24,108.246.006-.832.052-1.657.071-2.488,6.828-15.171,13.547-30.31,21.409-45.027q13.468-25.223,28.79-49.425a705.107,705.107,0,0,1,67.7-90.04q21.373-24.1,44.969-46.105a2.912,2.912,0,0,0,.747-1.085c.071-.013.15-.039.228-.046C1654.4,454.955,1653.844,461.108,1651.9,465.565Zm-38.491,5.692q8.04-4.483,16.393-8.375c1.716-.8,3.45-1.546,5.185-2.3a714.884,714.884,0,0,0-68.222,77.1,663.4,663.4,0,0,0-61.075,96.531c-4.853,9.4-9.441,18.94-13.944,28.51-2.6,5.523-5.21,11.039-7.7,16.607A255.667,255.667,0,0,1,1506,588.274c6.088-5.6,11.747-11.786,17.361-17.77q11.227-11.968,21.8-24.541a616.687,616.687,0,0,0,40.329-53.187,2.383,2.383,0,0,0-.332-3.1A250.989,250.989,0,0,1,1613.4,471.257Zm-35.736,24.385c-11.143,16.3-22.812,32.155-35.488,47.34q-10.516,12.592-21.7,24.625c-2.976,3.2-6.042,6.322-9.116,9.447a246.9,246.9,0,0,1,19.135-31.629A254,254,0,0,1,1577.669,495.641Zm-101.2-112.151a380.479,380.479,0,0,1-53.792,102.548,371.161,371.161,0,0,1-34.943,40.6c37.75-58.431,65.9-123.034,83.927-190.178q3.84-14.268,7.082-28.686c1.995-8.882,4.535-18.017,5.658-27.113C1497.433,312.994,1487.285,352,1476.473,383.49Zm4.9-109.435c-.078.007-.15.039-.234.052l.182-.156Zm-6.991,5.952c1.579-1.494,3.249-2.872,4.9-4.275-.013.052-.045.078-.059.13-2.358,8.778-3.281,17.978-5.113,26.893q-2.681,13.021-5.907,25.924-6.471,26.022-15,51.466a706.026,706.026,0,0,1-41.856,98.916q-11.061,21.51-23.559,42.272c.318-2.677.656-5.347.909-8.031,4.58-8.674,8.5-17.757,12.28-26.717,5.444-12.9,10.4-26.022,14.749-39.335a536.894,536.894,0,0,0,19.713-81.678c2.248-14,3.827-28.095,4.938-42.233A200.453,200.453,0,0,1,1474.381,280.007Zm-56.995,91.483a337.208,337.208,0,0,1,16.88-37.334,527.922,527.922,0,0,1-35.034,145.567c-3,7.55-6.348,14.957-9.674,22.37q.76-12.455.623-24.95A476.407,476.407,0,0,1,1417.386,371.49Zm-56.053-10.558c2.527,6.731,4.789,13.56,6.887,20.441-.656-1.04-1.313-2.073-1.937-3.112q-4.522-7.6-8.784-15.366-8.2-14.941-15.3-30.447c-6.205-13.469-11.767-27.23-16.841-41.167A336.626,336.626,0,0,1,1361.333,360.931Zm-46.554-84.557c1.54,2.034,3.008,4.113,4.5,6.179a479.934,479.934,0,0,0,20.045,51.745q7.075,15.506,15.145,30.518,4.016,7.5,8.278,14.872c2.794,4.821,5.426,10.064,8.856,14.457a1.448,1.448,0,0,0,.325.279,344.663,344.663,0,0,1,10.123,58.613,643.4,643.4,0,0,1-59.593-136.964c-2.859-9.486-5.49-19.05-8.038-28.627C1314.494,283.756,1314.585,280.065,1314.779,276.375ZM1360.1,421.441q10.009,20.252,21.487,39.725a2.484,2.484,0,0,0,1.091,1c.052.975.15,1.943.2,2.917.181,3.691.227,7.381.279,11.078q-2.777,20.847-3.729,41.882c-14.444-51.323-31.8-102.015-50.81-151.8-3.6-9.421-7.329-18.8-11.117-28.147-.4-2.95-.825-5.9-1.15-8.869q-1.549-13.888-1.878-27.854C1325.305,342.843,1341.166,383.107,1360.1,421.441Zm-17.874,14.171c-9.863-27.62-17.887-55.975-22.8-84.9,16.393,42.187,31.382,84.9,44.227,128.31,2.839,9.61,5.575,19.252,8.278,28.9-3.2-7.063-6.413-14.125-9.441-21.24C1355.317,469.827,1348.39,452.869,1342.224,435.612Zm-117.66-288.281A726.48,726.48,0,0,1,1208.164,257c-4.093,17.9-8.921,35.638-14.3,53.194-.305-.266-.61-.526-.91-.793a.752.752,0,0,0,1.15-.344c9.59-33.182,16.133-67.1,21.084-101.281a834.963,834.963,0,0,0,8.35-102.795q.283-14.112.136-28.238-.078-7.2-.273-14.411c-.013-.364-.013-.728-.02-1.1,2.521,10.11,3,20.759,3.04,31.252Q1226.548,119.931,1224.564,147.331Zm-6.5-95.232c-.091,2.846.169,5.718.286,8.57q.263,6.6.435,13.19.332,12.875.26,25.762-.146,25.515-1.839,50.985a847.768,847.768,0,0,1-12.7,101.768c-3.554,18.829-7.615,37.62-11.975,56.274a.6.6,0,0,0,.1.474l-.052-.045q-1.628-8.421-2.989-16.88c1.93-6.946,3.125-14.145,4.5-21.214q2.144-11.081,4.009-22.221,3.82-22.562,6.608-45.274,5.506-45.417,7.063-91.2.419-12.494.585-25,.087-6.4.084-12.806c0-3.872.338-7.966-.481-11.773Q1214.814,57.306,1218.06,52.1Zm-25.677,66.481a225.8,225.8,0,0,1,14.632-45.774q.059,6,.052,12.007c-.019,7.323-.1,14.645-.279,21.968q-.575,22.572-2.105,45.1-3.06,45.036-9.876,89.722-1.91,12.66-4.126,25.281c-.838,4.756-1.826,9.519-2.729,14.288-.643-4.7-1.248-9.415-1.748-14.138C1180.98,217.937,1182.116,166.992,1192.382,118.58Zm-109.052,35.865c3.47.266,6.406,2.878,8.908,5.061,5.127,4.483,10.045,9.226,14.794,14.093a313.7,313.7,0,0,1,48.581,64.161,325.517,325.517,0,0,1,19.564,40.615c1.826,4.594,3.522,9.239,5.146,13.9-11.013-16.029-21.883-32.155-32.968-48.126Q1127.3,215.277,1106.409,187c-7.953-10.76-15.737-21.818-24.469-31.967a1.124,1.124,0,0,0-.747-.4A6.855,6.855,0,0,1,1083.331,154.445Zm-2.313.208h0Zm-.754.4a1.076,1.076,0,0,0-.1,1.377c6.589,9.792,13.976,19.083,20.986,28.588s13.963,19.07,20.844,28.686q20.457,28.614,39.88,57.93c5.12,7.771,10.24,15.568,15.256,23.423-30.342-28.757-56.754-61.433-77.6-97.818q-10.77-18.781-19.778-38.51a1.043,1.043,0,0,0-1.741-.247A3.993,3.993,0,0,1,1080.264,155.049Zm12.969,41.927q-4.464-8.976-8.356-18.212-1.949-4.61-3.755-9.285c-1.131-2.937-2.638-6.108-3.106-9.265a426.7,426.7,0,0,0,85.571,128.349c6.594,6.816,13.488,13.333,20.531,19.687A327.565,327.565,0,0,1,1093.233,196.977Zm-147.8-76.156c7.517,8.934,15.392,17.569,22.617,26.769,8.486,10.8,16.562,21.961,23.969,33.526,14.866,23.209,28.348,47.775,38.607,73.394,2.5,6.244,4.762,12.572,7.036,18.894q-4.814-7.8-9.668-15.581-10.662-17.182-21.318-34.371-21.09-34.17-42.077-68.391c-5.951-9.72-11.922-19.434-18.069-29.037C946.165,124.291,945.755,122.569,945.431,120.821Zm56.332,41.635c16.192,25.593,23.229,55.734,30.719,84.693.241.929.507,1.845.754,2.774-4.594-10.3-9.35-20.512-14.606-30.492a468.933,468.933,0,0,0-45-69.5C965.644,139.677,957.3,129.255,948.036,120,970.776,125.928,989.32,142.8,1001.763,162.456Zm23.6,102.359c-25.677-27.016-48.171-57.456-63.505-91.567a232.492,232.492,0,0,1-13.612-39.361c10.331,17.582,21.246,34.852,31.837,52.252q20.886,34.335,41.518,68.827l9.317,15.516C1029.058,268.6,1027.18,266.739,1025.361,264.816ZM884.5,332.4c31.785.9,63.213,5.412,94.634,9.986-1.572.624-3.158,1.182-4.736,1.78-5.159-.812-10.468-1.17-15.594-1.7-7.036-.741-14.079-1.423-21.123-2.092-13.872-1.306-27.841-1.865-41.765-2.255a674.892,674.892,0,0,0-83.582,3.138q-10.789,1.033-21.558,2.423C820.844,334.208,852.967,331.5,884.5,332.4ZM763.628,354.466c.741-.364,1.494-.689,2.235-1.04a2.724,2.724,0,0,0,.461.007c54.786-9.753,110.514-13.787,166.112-10.045,7.673.52,15.327,1.027,22.974,1.878,1.722.195,3.444.435,5.172.676a1332.672,1332.672,0,0,1-154.9,9.181q-12.338,0-24.67-.214C775.362,354.8,769.4,354.233,763.628,354.466Zm41.485,8.628c-8.525-1.163-16.991-2.7-25.4-4.509q10.594.224,21.181.279,21.539.127,43.065-.416c29.192-.734,58.352-2.261,87.454-4.756,6.738-.578,13.476-1.215,20.213-1.865A350.109,350.109,0,0,1,805.114,363.095Zm340.715,121.774a235.663,235.663,0,0,1,10.98,28.8,1031.425,1031.425,0,0,0-78.683-100.573c-6.777-7.621-13.735-15.067-20.785-22.435A207.7,207.7,0,0,1,1145.828,484.868Zm1.833,21.929c-29.017-25.963-54.89-55.169-76.039-88.039-5.471-8.5-10.526-17.238-15.535-26.009,29.908,32.636,58.158,66.7,83.777,102.834C1142.5,499.293,1145.068,503.048,1147.661,506.8Zm-17.758-4a234.472,234.472,0,0,1-26.672-24.683,241.807,241.807,0,0,1-40.784-59.977,224.753,224.753,0,0,1-12.17-31.174l.111.052c9.941,20.707,22.747,40.277,36.352,58.71,14.418,19.531,29.894,38.412,47.164,55.526,6.315,6.257,12.943,12.209,19.674,18.024-2.982-1.93-6.042-3.762-8.992-5.744Q1137.044,508.457,1129.9,502.8Zm-48.4,25.034c-8.213,4.516-16.354,9.148-24.755,13.333q-15.448,7.69-31.467,14.151c-18.615,7.5-37.737,13.384-57.06,18.686,27.1-21.09,59.373-35.034,92.847-42.473C1067.847,530.032,1074.663,528.817,1081.5,527.836ZM957.873,582.589c1.832-1.637,3.775-3.132,5.659-4.691a367.258,367.258,0,0,0,62.544-19.31q16.276-6.53,32-14.346c10.214-5.087,20.5-10.357,30.011-16.672a1.2,1.2,0,0,0,.474-.63q11.2-1.326,22.461-1.793c-2.385,1.306-4.723,2.7-6.978,3.827q-8.362,4.191-16.809,8.213-16.889,8.041-34.092,15.392c-22.962,9.811-46.112,18.927-69.8,26.828-11.117,3.71-22.331,7.121-33.461,10.8C952.428,587.546,955.157,585.019,957.873,582.589Zm-11.2,11.221c23.248-5.373,46.053-13.579,68.384-21.844,23.43-8.674,46.515-17.92,69.184-28.439q9.541-4.435,18.985-9.077,4.717-2.329,9.408-4.7c2.846-1.442,5.932-2.722,8.33-4.86,9.46-.1,18.933.175,28.387.871q1.315.75,2.657,1.436c-26.217,10.929-52.3,22.091-78.975,31.883-26.736,9.818-53.98,18.414-81.321,26.353-15.562,4.522-31.22,8.642-46.69,13.43a.648.648,0,0,0-.442.715C944.209,597.9,945.4,595.583,946.672,593.81ZM980.25,596.2q-8.528,1.608-17.081,3.132-4.415.809-8.843,1.585a24.679,24.679,0,0,1-6.822.728c-1.624-.182-2.443-.8-2.8-1.631a.705.705,0,0,0,.76.409c27.835-5.464,55.169-13.982,82.192-22.533,27.354-8.654,54.565-17.978,81.405-28.108q13.616-5.136,27.178-10.539c-26.483,18.206-56.351,31.272-87.123,40.654C1026.537,586.786,1003.432,591.822,980.25,596.2Zm330.229,121.351a553.491,553.491,0,0,1,37.672,41.823c-7.453-7.381-15.21-14.431-22.949-21.246-22.572-19.888-45.988-38.828-68.963-58.242q-20.37-17.212-40.875-34.274a.836.836,0,0,0-1.04-.052c-.4-2.131-.78-4.275-1.143-6.413C1247.987,662.169,1280.954,688.022,1310.478,717.552Zm-93.341-58.424c-.929-3.742-1.663-7.524-2.385-11.312,23.2,20.194,46.534,40.238,69.671,60.5,21.416,18.751,43.559,36.892,63.33,57.417,4.847,5.029,9.408,10.24,13.814,15.587-31.578-24.073-69.5-38.783-103.166-59.841-5.77-3.6-11.416-7.394-16.88-11.442-1.657-1.228-3.294-2.553-4.938-3.892a169.314,169.314,0,0,1-10.844-21.318A173.979,173.979,0,0,1,1217.137,659.128Zm68.4,99.078a166.083,166.083,0,0,1-43.019-42.922c3.119,2.261,6.276,4.47,9.493,6.588,9.8,6.452,19.979,12.286,30.258,17.913,20.954,11.474,42.291,22.409,62.063,35.878a208.43,208.43,0,0,1,26.353,21.019C1342.543,783.273,1311.576,775.924,1285.535,758.206Zm62.323,207.941c14.288,11.37,28.127,23.326,41.9,35.307,1.9,1.657,3.781,3.346,5.659,5.029-1.546-.89-3.06-1.832-4.613-2.7a849.322,849.322,0,0,0-97.532-71.555q-10.233-6.442-20.687-12.514a260.7,260.7,0,0,1,31.564,15.815A393.848,393.848,0,0,1,1347.858,966.148ZM1337.54,990.48a186.542,186.542,0,0,1-58.054-46.436,195.885,195.885,0,0,1-12.2-16.3c-1.891-2.813-3.7-5.679-5.471-8.57a36.393,36.393,0,0,0-3.346-5.088c.474.176.936.377,1.4.552a.948.948,0,0,0,.461.884c37.97,22.773,74.5,47.216,108.766,75.3.546.442,1.072.9,1.611,1.351q-12.3-7.524-24.358-15.438-26.919-17.611-52.856-36.691-14.834-10.906-29.453-22.136a.958.958,0,0,0-1.163,1.52c33.728,27.5,69.574,52.148,106.317,75.421,6.335,4.009,12.65,8.219,19.07,12.209.227.195.448.4.675.591a153.49,153.49,0,0,1-16.5-3.522A184.944,184.944,0,0,1,1337.54,990.48Zm-111.007,128.459a542.419,542.419,0,0,0,70.516,83.783,526.209,526.209,0,0,0,87.26,68.781c7.907,4.977,15.964,9.7,24.118,14.255a300.129,300.129,0,0,1-71.907-35.534,310.313,310.313,0,0,1-79.573-77.117c-11.838-16.692-21.194-34.527-30.161-52.836C1226.694,1119.83,1226.617,1119.388,1226.533,1118.939Zm7.309,5.919c4.516,4.522,9.434,8.706,14.1,13.014q9.844,9.064,19.765,18.043,19.814,17.972,39.816,35.755c26.536,23.579,52.817,47.411,79.71,70.594,6.465,5.568,12.982,11.072,19.46,16.62a545.375,545.375,0,0,1-59.717-38.763,523.969,523.969,0,0,1-80.944-74.687C1254.653,1152.446,1243.945,1138.867,1233.842,1124.859Zm57.054,38.581c21.038,17.7,40.939,36.665,60.685,55.773,15.594,15.081,31.1,30.245,46.813,45.2-41.824-34.52-83.244-69.547-123.723-105.64q-10.887-9.707-21.721-19.473c-7.479-6.705-14.691-14.093-22.825-20a.508.508,0,0,0-.312-.078c-.514-.728-1.04-1.449-1.553-2.17C1249.611,1131.954,1270.922,1146.638,1290.9,1163.44Zm-63.947-47.314a1.233,1.233,0,0,0-.857.5c-.078-.422-.169-.845-.24-1.267Zm158.14,170.341a286.465,286.465,0,0,1-57.736-25.937c-34.235-20.493-63.557-49.159-82.074-84.732a192.249,192.249,0,0,1-16.224-44.819,268.112,268.112,0,0,0,21.526,37.7,316.612,316.612,0,0,0,127.167,110.351,304.08,304.08,0,0,0,47.8,17.933c-3.365-.669-6.738-1.312-10.09-2.073Q1400.087,1291.386,1385.088,1286.468Zm86.584,200.742c1.884,5.9,3.573,11.851,5.211,17.822l-.195-.37q-4.61-9.142-9.141-18.329-9.191-18.635-18.128-37.392c-11.91-25.015-23.131-50.335-33.995-75.818q-4.483-10.526-8.863-21.09c-.877-2.118-1.735-4.262-2.6-6.4A576.055,576.055,0,0,1,1471.672,1487.21Zm-34.059-29.816c-14.288-27.107-24.248-56.274-32.279-85.778-3.431-12.6-6.452-25.294-9.4-38.009l.084.13c1.6,5.354,3.762,10.552,5.854,15.73q3.946,9.766,7.978,19.505,8.061,19.473,16.523,38.77c11.182,25.554,22.539,51.037,34.533,76.214q5.047,10.6,10.207,21.142c.208.435.409.884.617,1.319A243.091,243.091,0,0,1,1437.612,1457.394Zm-95-29.8a430.76,430.76,0,0,1,104.159,70.841c-.909-.65-1.812-1.332-2.716-1.969-9.239-6.5-18.8-12.521-28.582-18.173a634.753,634.753,0,0,0-60.3-30.148c-41.609-18.466-84.433-34.267-125.12-54.792-11.487-5.8-22.76-11.988-33.695-18.784q-8.05-5-15.848-10.4c-5.165-3.593-10.1-7.517-15.34-10.98.006-.111-.013-.221,0-.325C1222.842,1381.258,1284.788,1399.561,1342.614,1427.6Zm-176.631-68.326a19.314,19.314,0,0,1-.734-3.372c7.823,7,17,12.845,25.782,18.485,9.245,5.939,18.751,11.481,28.38,16.776,19.908,10.948,40.518,20.564,61.3,29.732,41.544,18.329,84.056,34.878,123.69,57.216,8.336,4.7,16.465,9.772,24.449,15.054q-11.481-5.643-23.111-10.98-32.338-14.795-66.026-26.34c-43.389-14.866-89.748-25.281-128.394-51.069A166.5,166.5,0,0,1,1165.983,1359.271Zm55.7,63.479a223.946,223.946,0,0,1-33.929-31.415c-1.326-1.52-2.573-3.112-3.853-4.671a179.445,179.445,0,0,0,17.484,14.775c17.276,12.923,36.671,22.76,56.573,30.941,22.344,9.181,45.579,16.009,68.456,23.7s45.365,16.412,67.4,26.23q18.5,8.245,36.431,17.64c2.865,1.488,5.686,3.06,8.525,4.594-16.944-5.88-34.657-9.831-52.024-13.969C1328.827,1476.749,1269.824,1459.148,1221.679,1422.75Zm377.3,107.479c-.513.436-1.033.865-1.552,1.293.357-.584.754-1.15,1.117-1.741A1.3,1.3,0,0,0,1598.974,1530.229Zm158.848-99.591a701.4,701.4,0,0,0-130.065,76.682c-8.343,6.231-16.471,12.728-24.508,19.343,30.876-36.983,70.575-66.325,115.517-83.933A279.881,279.881,0,0,1,1757.822,1430.637Zm-43.123,8.57a284.378,284.378,0,0,0-87.955,57.586,266.207,266.207,0,0,0-24.255,26.808C1629.089,1483.961,1669.367,1454.06,1714.7,1439.208Zm-70.834-13.723c-10.377,22.234-21.617,44.046-32.8,65.883,6.932-26.256,14.047-52.427,22.9-78.131A882.8,882.8,0,0,1,1669,1327.1c6.238-13.333,12.871-26.477,19.733-39.5C1681.53,1335.6,1664.338,1381.589,1643.865,1425.485Zm46.326-148.686a2.393,2.393,0,0,0-1.885,1.274,909.579,909.579,0,0,0-70.379,174.337q-2.574,8.879-4.951,17.8a440.823,440.823,0,0,1,47.788-148.971c7.816-14.658,16.516-28.92,25.723-42.759,1.293-1,2.547-2.053,3.872-3.008C1690.314,1275.916,1690.243,1276.358,1690.191,1276.8Zm-33.241,30.719a165.689,165.689,0,0,1,22.982-23.813c-34.033,48.912-56.754,106.115-67.67,164.52a445.447,445.447,0,0,0-6.484,51.427C1606.115,1432.47,1614.2,1361.908,1656.95,1307.519Zm50.823,177.411a277.624,277.624,0,0,1-43.3,20.908c-14.015,5.328-28.393,9.649-42.272,15.321-5.224,2.131-10.707,4.6-16.048,7.427a755.456,755.456,0,0,1,125.737-79.762q20.8-10.448,42.175-19.641a2.381,2.381,0,0,0,.487-.338l.169-.006A275.221,275.221,0,0,1,1707.773,1484.929Z" transform="matrix(0.799, 0.602, -0.602, 0.799, 481.431, -483.082)" fill="#a20027" opacity="0.2"/>
</svg>
