<?xml version="1.0" encoding="utf-8"?>
<!-- Generator: Adobe Illustrator 24.0.1, SVG Export Plug-In . SVG Version: 6.00 Build 0)  -->
<svg version="1.1" id="Capa_1" xmlns="http://www.w3.org/2000/svg" xmlns:xlink="http://www.w3.org/1999/xlink" x="0px" y="0px"
	 viewBox="0 0 497.4 497.2" style="enable-background:new 0 0 497.4 497.2;" xml:space="preserve">
<style type="text/css">
	.st0{fill:#FEFEFE;}
	.st1{fill:none;stroke:#FEFEFE;stroke-width:1.93;stroke-miterlimit:10;}
</style>
<g id="nELQ3P_1_">
	<g>
		<path class="st0" d="M334.3,251.1c-53.7,38.2-107.3,76.6-160.9,114.9c-0.6,0.5-1.3,0.8-2.4,1.5V129.6c12.8,9.1,25.2,18,37.5,26.8
			c41.7,29.8,83.5,59.6,125.2,89.4C336.2,247.6,338.1,248.4,334.3,251.1z"/>
	</g>
</g>
<path class="st1" d="M488.7,248.9C488.3,381.6,380.5,489,248.2,488.6C115.8,488.2,8.7,380.8,8.7,248.6
	c0-132.4,107.7-240.1,240.1-240C381.4,8.8,489,116.6,488.7,248.9z"/>
</svg>
