<?xml version="1.0" encoding="utf-8"?>
<!-- Generator: Adobe Illustrator 24.0.1, SVG Export Plug-In . SVG Version: 6.00 Build 0)  -->
<svg version="1.1" id="Capa_1" xmlns="http://www.w3.org/2000/svg" xmlns:xlink="http://www.w3.org/1999/xlink" x="0px" y="0px"
	 viewBox="0 0 1098.3 641.5" style="enable-background:new 0 0 1098.3 641.5;" xml:space="preserve">
<style type="text/css">
	.st0{fill:#9B785C;}
</style>
<g>
	<path class="st0" d="M1078.1,29.1c-4.1-8.9-10.5-15.2-19.9-18.2c-3.6-1.1-7.5-1.9-11.2-2.3c-8.8-1-17.5-0.3-26.3,0.8
		c-12,1.5-23.3,5.8-34.3,10.3c-13.8,5.7-27,12.4-40.1,19.5c-16.6,8.9-33.2,17.9-49.8,26.7c-8.8,4.6-17.8,8.8-27,12.3
		c-9.4,3.6-18.9,6.9-28.3,10.6c-17.5,7.1-34.7,14.7-51.7,22.8c-31.2,14.9-61.5,31.2-90.9,49.5c-25.5,15.9-50.1,33-73.1,52.5
		c-19.8,16.8-38.2,34.9-53.3,56.2c-0.4,0.6-1,1.1-1.8,1.8c-2.5-4.1-5.8-7.1-9.4-9.5c-0.1-0.7-0.3-1.2-0.3-1.6
		c-1.4-15.3,0.3-30.3,4.6-45c5.2-17.7,13.9-33.6,25.4-48c5.7-7.1,11.4-14.2,17.1-21.4c8.6-10.9,17.1-22,24.6-33.7
		c10-15.6,16.7-32.4,17.8-51.1c0.1-1.3,0.4-2.4,1.1-3.6c3.4-5.7,3.5-11.8,1.9-18.1c-0.4-1.5-1.1-3-1.9-4.4c-2.3-3.5-5.8-3.6-8.2-0.2
		c-1,1.6-1.8,3.4-2.2,5.2c-1.6,7.5-1.2,14.6,4.4,20.4c0,0.6,0.1,0.9,0.1,1.2c-1.1,15.1-5.9,29.1-13.5,42.1
		c-4.4,7.6-9.3,14.9-14.7,21.9c-9.6,12.4-19.3,24.7-29,37c-5.4,6.8-10.4,13.8-14.7,21.3c-12.6,22.2-19,45.9-18,71.6
		c0,1.4,0,2.8,0.1,4.1c-4.1,0.4-8,0.7-11.8,1c-0.1-0.3-0.2-0.5-0.2-0.6c0.1-1.3,0.2-2.5,0.2-3.8c1-18.6-2.1-36.6-8.8-54
		c-5.5-14.1-13.2-26.9-22.6-38.8c-8.6-10.9-17.2-21.8-25.7-32.8c-7.1-9.2-13.8-18.8-19.5-29c-6.4-11.6-10.7-23.9-12-37.1
		c-0.1-1.4-0.5-2.8,0.2-4.2c3.8-1.7,4.8-2.7,6.1-6.2c1.8-5.1,1.8-10.4,0.3-15.6c-0.5-1.8-1.5-3.5-2.7-5c-1.7-2.1-4.4-2.2-6.3-0.2
		c-1.1,1.3-2,2.9-2.7,4.5c-1.4,3.8-1.6,7.8-1,11.8c0.4,2.8,0.6,5.7,0.8,8.6c0.5,6.7,1.2,13.4,2.8,19.9c2.2,8.8,5.6,17,9.9,24.9
		c6,11.2,13.3,21.5,21,31.5c8.7,11.3,17.5,22.4,26.3,33.6c16.2,20.8,26.4,44,28.9,70.4c0.7,7.5,0.7,15-0.1,22.5
		c-0.2,2.1-0.7,4-2.4,5.5c-2,1.9-3.4,4.2-4.4,6.8c-0.3,0.7-0.7,1.3-1.2,2.3c-0.7-0.9-1.3-1.4-1.7-2c-10.7-16.2-23.6-30.6-37.6-44
		c-19.3-18.6-40.3-35-62.2-50.3c-30.4-21.1-62.2-39.8-95.1-56.8c-33.7-17.4-68.2-33-103.9-46c-5.5-2-11-4.4-16.3-7
		c-7.6-3.7-15.2-7.6-22.6-11.6c-15.9-8.5-31.7-17.3-47.7-25.8c-13.6-7.2-27.4-13.8-41.9-19.1C88.7,8.4,75.2,6,61.4,5.9
		c-6.8,0-13.4,0.6-19.9,2.6c-7.7,2.4-13.6,6.8-17.9,13.6c-2.8,4.5-4.7,9.4-5.8,14.6c-1.6,7.8-1.4,15.6,0,23.4
		c2.3,12.9,7.1,24.8,13.8,36.1c7.2,12.1,15.1,23.7,23.1,35.3c9.5,13.8,19.1,27.6,27.7,42c5.8,9.8,11,19.9,14.3,30.8
		c0.9,2.9,2.2,5.7,3.8,8.3c2.6,4.4,5.3,8.8,8.2,12.9c7.5,10.7,16.1,20.7,24.7,30.6c11.2,12.9,22.5,25.7,33.7,38.6
		c6.5,7.5,12.5,15.3,18.2,23.5c6.4,9.2,9.9,19.3,10.6,30.4c0.4,6.5,1,13.1,1.3,19.6c0.6,12,1.6,23.9,5.8,35.3c0,0.1,0,0.3-0.1,0.8
		c-0.4,0.4-0.9,1-1.4,1.5c-10.4,9.8-17,21.8-20.6,35.6c-3.9,14.7-4.7,29.6-3.2,44.7c1.8,18.1,6.9,35.4,13.8,52.2
		c5.8,14.2,12.6,28,20.2,41.3c3.9,6.8,7.9,13.5,12.2,20.1c3,4.7,6.9,8.8,11.4,12.2c5.8,4.4,12.4,6.6,19.7,6.1
		c4.6-0.3,9.2-1.1,13.6-2.8c6.2-2.5,12.4-5.2,18.6-7.7c5.8-2.3,11.5-4.8,17.4-6.8c11.2-3.8,22.8-4.7,34.5-3.6
		c7.5,0.7,14.9,1.6,22.4,2.2c16.1,1.4,31.9-0.7,47.3-5.6c7.2-2.3,14.1-5.3,20.8-8.7c20.8-10.5,38.9-24.5,53.4-42.8
		c1.1-1.4,2.2-2.7,3.5-4c7-7.3,13.1-15.3,18.2-24c7.3-12.3,12.5-25.5,16.7-39.2c3.8-12.2,6.6-24.7,9.5-37.2
		c2.7-11.4,5.6-22.7,8.4-34c0.3-1.2,0.4-2.5,1.6-3.7c0.4,0.8,0.7,1.3,0.9,1.9c1,3.8,1.2,7.6,1.1,11.4c-0.1,25.9-0.2,51.8-0.2,77.7
		c0,1.6-0.1,3.2,0.3,4.8c1.2,5.8,7.8,8.5,12.8,5.2c2.5-1.6,3.7-3.9,3.8-6.8c0.1-3.5,0.1-7,0.1-10.5c0.1-22.7,0.1-45.4,0.2-68
		c0-1.2,0.2-2.4,0.3-3.6c0.8,0.6,1.1,1.3,1.3,2c1.5,6.2,3.1,12.4,4.5,18.6c2,8.6,3.8,17.2,5.9,25.7c3.5,14.5,7.8,28.7,14,42.3
		c5.9,12.9,13.3,24.8,22.8,35.3c2.8,3.1,5.5,6.2,8.2,9.4c18.9,22.6,42.5,38.5,70.2,48.5c13.6,4.9,27.9,7.1,42.4,6.5
		c8.5-0.3,16.9-1.2,25.3-2.2c15.7-1.8,30.9,0.2,45.6,6.2c4,1.7,7.9,3.5,11.9,5.2c4.8,2.1,9.7,4.2,14.6,6.2c4.3,1.7,8.8,2.9,13.4,3.4
		c5.2,0.6,10.2,0,15-2c4.8-2,8.8-5.2,12.4-8.9c4.2-4.4,7.7-9.4,10.8-14.6c8.4-14,16.2-28.3,23-43.2c7.4-16.2,13.4-32.8,16.8-50.4
		c3.8-20.1,3.7-40-1.9-59.8c-3.4-12.1-9.5-22.6-18.3-31.6c-1-1-2-2-3.3-3.4c2.5-6,4-11.9,4.7-17.9c0.8-6.8,1.2-13.7,1.8-20.5
		c0.7-7.6,1.2-15.3,2.1-22.9c0.8-6.9,3.1-13.4,6.9-19.3c3-4.7,6.2-9.3,9.5-13.8c8-10.6,16.9-20.5,25.6-30.4
		c10.6-12,21.2-24,31.6-36.1c6.6-7.6,12.7-15.6,18.2-24.1c3-4.7,5.9-9.5,7.6-14.9c2.9-9.7,7.3-18.8,12.6-27.4
		c6.2-10.1,12.7-20,19.2-29.8c9.5-14.2,19.3-28.3,28.7-42.5c3.5-5.3,6.7-10.9,9.6-16.6c5.5-10.8,9-22.2,9.8-34.3
		C1082.8,46,1081.9,37.3,1078.1,29.1z M587,370.5c0.2,0.1,0.4,0.2,0.5,0.4c0,0,0.1,0,0.2,0c0,0,0,0.1,0.1,0.1c0,0-0.1,0-0.1,0
		c0,0-0.1,0-0.1-0.1c-0.2,0-0.4,0.1-0.6,0.2C586.9,370.9,587,370.7,587,370.5z"/>
	<path class="st0" d="M587.7,370.9c0,0-0.1,0-0.1,0L587.7,370.9C587.7,370.9,587.7,370.9,587.7,370.9z"/>
	<path class="st0" d="M587.5,370.9c-0.2,0-0.4,0.1-0.6,0.2c0-0.2,0-0.4,0.1-0.5C587.2,370.6,587.3,370.8,587.5,370.9z"/>
	<path class="st0" d="M587.7,370.8l-0.1,0.1c0,0-0.1,0-0.1-0.1C587.6,370.8,587.6,370.8,587.7,370.8z"/>
	<path class="st0" d="M587.6,370.9L587.6,370.9c0,0,0.1-0.1,0.1-0.1L587.6,370.9z"/>
</g>
</svg>
